<?xml version="1.0" encoding="UTF-8" standalone="no"?>
<!-- Created with Inkscape (http://www.inkscape.org/) -->

<svg
   width="256"
   height="256"
   viewBox="0 0 256 256"
   version="1.1"
   id="svg5"
   inkscape:version="1.1.2 (0a00cf5339, 2022-02-04)"
   sodipodi:docname="car.svg"
   xmlns:inkscape="http://www.inkscape.org/namespaces/inkscape"
   xmlns:sodipodi="http://sodipodi.sourceforge.net/DTD/sodipodi-0.dtd"
   xmlns:xlink="http://www.w3.org/1999/xlink"
   xmlns="http://www.w3.org/2000/svg"
   xmlns:svg="http://www.w3.org/2000/svg">
  <sodipodi:namedview
     id="namedview7"
     pagecolor="#ffffff"
     bordercolor="#666666"
     borderopacity="1.0"
     inkscape:pageshadow="2"
     inkscape:pageopacity="0.0"
     inkscape:pagecheckerboard="0"
     inkscape:document-units="px"
     showgrid="false"
     inkscape:zoom="0.4692965"
     inkscape:cx="1108.0415"
     inkscape:cy="-40.486132"
     inkscape:window-width="1902"
     inkscape:window-height="1037"
     inkscape:window-x="8"
     inkscape:window-y="8"
     inkscape:window-maximized="1"
     inkscape:current-layer="layer1"
     units="px"
     width="1024px" />
  <defs
     id="defs2">
    <linearGradient
       inkscape:collect="always"
       id="linearGradient3820">
      <stop
         style="stop-color:#ffffff;stop-opacity:1"
         offset="0"
         id="stop3816" />
      <stop
         style="stop-color:#fffffc;stop-opacity:0"
         offset="1"
         id="stop3818" />
    </linearGradient>
    <linearGradient
       inkscape:collect="always"
       id="linearGradient3229">
      <stop
         style="stop-color:#0080ff;stop-opacity:1;"
         offset="0"
         id="stop3225" />
      <stop
         style="stop-color:#004080;stop-opacity:1"
         offset="1"
         id="stop3227" />
    </linearGradient>
    <linearGradient
       inkscape:collect="always"
       xlink:href="#linearGradient3229"
       id="linearGradient4136"
       gradientUnits="userSpaceOnUse"
       gradientTransform="translate(664.26131,-27.615976)"
       x1="0"
       y1="0"
       x2="256"
       y2="256" />
    <linearGradient
       inkscape:collect="always"
       xlink:href="#linearGradient3820"
       id="linearGradient4138"
       gradientUnits="userSpaceOnUse"
       x1="0"
       y1="128"
       x2="16.000004"
       y2="128" />
    <linearGradient
       inkscape:collect="always"
       xlink:href="#linearGradient3820"
       id="linearGradient4140"
       gradientUnits="userSpaceOnUse"
       gradientTransform="rotate(90,128.00001,127.99805)"
       x1="0"
       y1="128"
       x2="16.000004"
       y2="128" />
    <linearGradient
       inkscape:collect="always"
       xlink:href="#linearGradient3820"
       id="linearGradient4142"
       gradientUnits="userSpaceOnUse"
       gradientTransform="rotate(180,128,127.99806)"
       x1="0"
       y1="128"
       x2="16.000004"
       y2="128" />
    <linearGradient
       inkscape:collect="always"
       xlink:href="#linearGradient3820"
       id="linearGradient4144"
       gradientUnits="userSpaceOnUse"
       gradientTransform="rotate(-90,127.99999,127.99805)"
       x1="0"
       y1="128"
       x2="16.000004"
       y2="128" />
  </defs>
  <g
     inkscape:label="Layer 1"
     inkscape:groupmode="layer"
     id="layer1">
    <g
       id="g4672"
       transform="matrix(0.99998478,0,0,0.99998478,-664.24925,27.617505)">
      <rect
         style="fill:url(#linearGradient4136);fill-opacity:1;stroke-width:21.593"
         id="rect4118"
         width="256"
         height="256"
         x="664.26129"
         y="-27.615976" />
      <path
         id="path4120"
         style="fill:#80c0ff;fill-opacity:1;stroke-width:21.593"
         d="M 664.26131,-27.615978 V 228.38403 h 256 V -27.615978 Z m 16,15.998047 h 224 V 212.38208 h -224 z" />
      <g
         id="g4132"
         transform="translate(664.26131,-27.614022)">
        <path
           style="fill:url(#linearGradient4138);fill-opacity:1;stroke:none;stroke-width:1px;stroke-linecap:butt;stroke-linejoin:miter;stroke-opacity:1"
           d="m 4e-6,0 16,15.998047 V 239.99805 L 0,256 Z"
           id="path4124" />
        <path
           style="fill:url(#linearGradient4140);fill-opacity:1;stroke:none;stroke-width:1px;stroke-linecap:butt;stroke-linejoin:miter;stroke-opacity:1"
           d="m 255.99805,-0.001953 -15.99804,16 H 16.000004 L -0.001946,-0.001957 Z"
           id="path4126" />
        <path
           style="fill:url(#linearGradient4142);fill-opacity:1;stroke:none;stroke-width:1px;stroke-linecap:butt;stroke-linejoin:miter;stroke-opacity:1"
           d="M 256,255.99609 240,239.99805 V 15.998047 l 16.00001,-16.00195 z"
           id="path4128" />
        <path
           style="fill:url(#linearGradient4144);fill-opacity:1;stroke:none;stroke-width:1px;stroke-linecap:butt;stroke-linejoin:miter;stroke-opacity:1"
           d="m 0.001964,255.99805 15.99804,-16 H 240 l 16.00195,16.00001 z"
           id="path4130" />
      </g>
      <path
         id="path4222"
         style="fill:#80c0ff;fill-opacity:1;stroke:none;stroke-width:0.0150013"
         d="m 802.32691,39.952394 c -1.89579,0.0019 -3.70723,0.04671 -5.02734,0.136718 -16.38143,1.110097 -30.85801,7.049746 -43.74414,17.970708 -2.82024,2.3852 -7.13961,6.64614 -9.83985,9.6914 -1.78515,1.99518 -3.6157,4.22963 -6.21094,7.54492 -4.44038,5.65549 -7.5164,8.34208 -11.01171,9.61719 -0.70506,0.24002 -2.80515,0.79481 -4.69532,1.21484 -5.10044,1.1251 -7.21542,1.81424 -10.4707,3.35938 -3.4353,1.65014 -5.52067,3.12073 -7.75586,5.46094 -3.67532,3.87033 -5.90923,9.19486 -6.7793,16.23047 -0.55505,4.47039 -0.70581,10.51664 -0.30078,13.17187 0.91508,6.19555 4.74017,11.25029 10.84571,14.31055 l 1.42578,0.7207 h 2.71484 c 1.50013,0 2.75969,-0.0292 2.80469,-0.0742 0.045,-0.045 0.0301,-0.38996 -0.0449,-0.75 -0.33003,-1.77015 -0.44884,-4.63552 -0.29883,-6.7207 0.37504,-4.71041 1.24505,-7.9509 3.24023,-12.03125 1.72515,-3.55531 3.6296,-6.16554 6.46485,-8.92578 4.95043,-4.80042 10.87612,-7.74155 17.76172,-8.80664 2.37021,-0.36003 7.0948,-0.36003 9.375,0 9.75085,1.59014 17.67291,6.84162 22.81836,15.15234 3.60032,5.79051 5.27944,13.33489 4.48437,19.98047 -0.12001,0.99008 -0.22461,1.89046 -0.22461,1.98047 0,0.15001 3.85565,0.19531 18.75195,0.19531 10.32091,0 18.75196,-0.0149 18.75196,-0.0449 0,-0.015 -0.10656,-0.77962 -0.22657,-1.67969 -0.25502,-1.92017 -0.28423,-5.266 -0.0742,-7.20117 0.97508,-8.70076 5.4301,-16.6504 12.3457,-22.00586 9.66085,-7.47066 22.75724,-8.80602 33.7832,-3.43555 9.82586,4.78541 16.48707,14.07007 17.86719,24.91602 0.19502,1.60514 0.22539,2.61175 0.15039,4.87695 -0.06,1.56013 -0.13531,3.11919 -0.19531,3.44922 l -0.0899,0.59961 0.8086,-0.68945 c 0.45004,-0.37503 1.32112,-1.27541 1.95117,-1.98047 4.89043,-5.50548 7.20062,-13.2467 6.43555,-21.48242 -0.43503,-4.5604 -1.83104,-8.63946 -4.15625,-12.13477 -1.11009,-1.66514 -3.32903,-4.06539 -4.61914,-4.98047 -0.79507,-0.55505 -0.82563,-0.61621 -0.76563,-1.15625 0.24002,-2.11519 -0.81101,-7.14051 -2.70117,-12.91601 -1.1251,-3.4503 -1.52863,-4.42461 -2.96875,-7.21485 -3.12028,-6.09053 -7.75689,-12.39042 -14.6875,-19.99609 -2.71523,-2.98526 -4.79998,-4.47159 -9.52539,-6.841798 -10.66593,-5.340467 -24.54257,-8.53555 -40.83399,-9.390624 -1.65764,-0.08251 -3.63741,-0.122969 -5.5332,-0.121094 z m -8.79297,12.332031 c 4.54539,0.03 5.55071,0.07514 6.30078,0.285156 3.07526,0.870079 5.70066,3.059989 7.05078,5.865239 1.00509,2.11518 1.02007,2.25043 1.08008,8.79101 0.075,6.36055 -0.10543,10.8014 -0.48047,12.60156 -0.46504,2.25019 -1.54566,3.88433 -2.92578,4.48438 l -0.73437,0.3164 -23.44727,-0.0312 -23.44726,-0.0449 -0.85352,-0.34375 c -0.93008,-0.37503 -2.2513,-1.47009 -2.61133,-2.16015 -0.43504,-0.84007 -0.54017,-1.95028 -0.28515,-3.15039 0.45004,-2.14518 1.87647,-4.60518 4.63671,-7.98047 9.03079,-11.02596 16.95086,-16.53229 26.05665,-18.10742 2.94026,-0.495051 3.97465,-0.555398 9.66015,-0.525395 z m 33.82813,1.201175 c 1.47013,0.06 2.32446,0.17957 3.97461,0.59961 2.68523,0.66006 6.63135,2.01032 8.14648,2.77539 2.68523,1.35012 6.0013,3.92987 8.14648,6.33007 4.74041,5.32547 8.22001,12.30018 8.25,16.56055 0.015,1.45513 -0.17994,2.23618 -0.75,3.03125 -0.58505,0.79507 -1.19982,1.23052 -2.29492,1.56055 -0.85507,0.27002 -1.64986,0.28515 -14.79101,0.28515 -13.66619,0 -13.89143,-7.5e-4 -14.52149,-0.30078 -0.76506,-0.37503 -1.32082,-1.15457 -1.75586,-2.42968 -0.31503,-0.93008 -0.315,-1.18459 -0.375,-11.35547 -0.045,-11.07097 0.0303,-13.32293 0.57032,-14.74805 0.42003,-1.1251 1.21498,-1.85976 2.20507,-2.00976 0.39003,-0.06 0.85453,-0.1646 1.01954,-0.22461 0.16501,-0.075 1.14069,-0.10423 2.17578,-0.0742 z m -81.3418,53.53515 c -0.84295,10e-4 -1.69172,0.0405 -2.54492,0.12305 -10.56092,1.02009 -19.57659,8.20693 -22.92188,18.25781 -0.96008,2.89525 -1.21467,4.3644 -1.30468,7.67969 -0.13501,4.89042 0.5849,8.34065 2.58007,12.54102 3.3903,7.06562 10.01997,12.46592 17.64063,14.37109 13.75621,3.4503 27.75173,-4.24437 32.16211,-17.68555 1.47013,-4.44039 1.74063,-9.19671 0.81054,-13.78711 -2.53146,-12.55891 -13.77769,-21.51686 -26.42187,-21.5 z m 99.9707,0.0352 c -0.58435,0.009 -1.11105,0.033 -1.52734,0.0742 -14.22124,1.48513 -24.84286,13.66493 -24.25781,27.82617 0.63006,14.9113 13.1123,26.44708 27.93359,25.83203 5.74551,-0.24002 11.10116,-2.20454 15.60156,-5.71484 1.62014,-1.29012 4.12537,-3.91547 5.35547,-5.64063 5.6255,-7.95069 6.47912,-18.42079 2.21875,-27.22656 -3.81034,-7.87569 -11.34042,-13.47144 -19.95117,-14.85156 -1.35012,-0.21378 -3.62,-0.32555 -5.37305,-0.29883 z m 0.92969,14.20117 c 0.84757,-0.0112 1.69065,0.0337 2.2832,0.13867 4.14036,0.72006 7.6954,3.45077 9.43555,7.2461 0.88508,1.90517 1.17008,3.41886 1.08008,5.78906 -0.045,1.53014 -0.14928,2.2811 -0.4043,3.07617 -0.79507,2.49022 -2.3403,4.78565 -4.23047,6.30078 -1.1701,0.93008 -3.31519,2.02403 -4.69531,2.41407 -1.35012,0.37504 -4.39518,0.45041 -5.82031,0.15039 -4.98043,-1.02009 -8.92655,-4.99418 -9.93164,-9.97461 -0.34503,-1.65015 -0.2391,-4.42565 0.21094,-5.92578 1.38012,-4.6204 5.11521,-8.08555 9.76562,-9.01563 0.60755,-0.12001 1.45907,-0.18797 2.30664,-0.19922 z m -101.81836,0.0234 c 1.48021,-0.0352 3.43476,0.11912 4.40234,0.40039 0.61505,0.18002 1.69534,0.61457 2.4004,0.97461 2.52022,1.32011 4.32068,3.16595 5.55078,5.70117 0.88508,1.84516 1.19967,2.99905 1.30468,4.94922 0.34503,6.34555 -4.22999,12.04749 -10.56054,13.14258 -0.57005,0.10501 -1.7546,0.14852 -2.80469,0.10351 -1.57514,-0.06 -2.02559,-0.14957 -3.3457,-0.59961 -3.34529,-1.1401 -5.74518,-3.22543 -7.32032,-6.3457 -0.97509,-1.95017 -1.3053,-3.3298 -1.32031,-5.625 -0.03,-3.30029 0.90027,-5.80571 3.10547,-8.46094 1.63514,-1.93517 4.68007,-3.66057 7.32031,-4.14062 0.33378,-0.0563 0.77418,-0.0879 1.26758,-0.0996 z" />
    </g>
  </g>
</svg>
