<?xml version="1.0" encoding="UTF-8" standalone="no"?>
<!-- Created with Inkscape (http://www.inkscape.org/) -->

<svg
   width="256"
   height="256"
   viewBox="0 0 256 256"
   version="1.1"
   id="svg5"
   inkscape:version="1.1.2 (0a00cf5339, 2022-02-04)"
   sodipodi:docname="datetime.svg"
   xmlns:inkscape="http://www.inkscape.org/namespaces/inkscape"
   xmlns:sodipodi="http://sodipodi.sourceforge.net/DTD/sodipodi-0.dtd"
   xmlns:xlink="http://www.w3.org/1999/xlink"
   xmlns="http://www.w3.org/2000/svg"
   xmlns:svg="http://www.w3.org/2000/svg">
  <sodipodi:namedview
     id="namedview7"
     pagecolor="#ffffff"
     bordercolor="#666666"
     borderopacity="1.0"
     inkscape:pageshadow="2"
     inkscape:pageopacity="0.0"
     inkscape:pagecheckerboard="0"
     inkscape:document-units="px"
     showgrid="false"
     inkscape:zoom="0.4692965"
     inkscape:cx="1108.0415"
     inkscape:cy="-40.486132"
     inkscape:window-width="1902"
     inkscape:window-height="1037"
     inkscape:window-x="8"
     inkscape:window-y="8"
     inkscape:window-maximized="1"
     inkscape:current-layer="layer1"
     units="px"
     width="1024px" />
  <defs
     id="defs2">
    <linearGradient
       inkscape:collect="always"
       id="linearGradient3820">
      <stop
         style="stop-color:#ffffff;stop-opacity:1"
         offset="0"
         id="stop3816" />
      <stop
         style="stop-color:#fffffc;stop-opacity:0"
         offset="1"
         id="stop3818" />
    </linearGradient>
    <linearGradient
       inkscape:collect="always"
       id="linearGradient3229">
      <stop
         style="stop-color:#0080ff;stop-opacity:1;"
         offset="0"
         id="stop3225" />
      <stop
         style="stop-color:#004080;stop-opacity:1"
         offset="1"
         id="stop3227" />
    </linearGradient>
    <linearGradient
       inkscape:collect="always"
       xlink:href="#linearGradient3229"
       id="linearGradient5297"
       gradientUnits="userSpaceOnUse"
       gradientTransform="translate(1563.8708,-112.51651)"
       x1="0"
       y1="0"
       x2="256"
       y2="256" />
    <linearGradient
       inkscape:collect="always"
       xlink:href="#linearGradient3820"
       id="linearGradient5299"
       gradientUnits="userSpaceOnUse"
       x1="0"
       y1="128"
       x2="16.000004"
       y2="128" />
    <linearGradient
       inkscape:collect="always"
       xlink:href="#linearGradient3820"
       id="linearGradient5301"
       gradientUnits="userSpaceOnUse"
       gradientTransform="rotate(90,128.00001,127.99805)"
       x1="0"
       y1="128"
       x2="16.000004"
       y2="128" />
    <linearGradient
       inkscape:collect="always"
       xlink:href="#linearGradient3820"
       id="linearGradient5303"
       gradientUnits="userSpaceOnUse"
       gradientTransform="rotate(180,128,127.99806)"
       x1="0"
       y1="128"
       x2="16.000004"
       y2="128" />
    <linearGradient
       inkscape:collect="always"
       xlink:href="#linearGradient3820"
       id="linearGradient5305"
       gradientUnits="userSpaceOnUse"
       gradientTransform="rotate(-90,127.99999,127.99805)"
       x1="0"
       y1="128"
       x2="16.000004"
       y2="128" />
  </defs>
  <g
     inkscape:label="Layer 1"
     inkscape:groupmode="layer"
     id="layer1">
    <g
       id="g21898"
       transform="matrix(0.99998478,0,0,0.99998478,-1563.8451,112.51675)">
      <rect
         style="fill:url(#linearGradient5297);fill-opacity:1;stroke-width:21.593"
         id="rect5279"
         width="256"
         height="256"
         x="1563.8707"
         y="-112.51652" />
      <path
         id="path5281"
         style="fill:#80c0ff;fill-opacity:1;stroke-width:21.593"
         d="m 1563.8708,-112.51651 v 256 h 256 v -256 z m 16,15.998044 h 224 V 127.48154 h -224 z" />
      <g
         id="g5291"
         transform="translate(1563.8708,-112.51456)">
        <path
           style="fill:url(#linearGradient5299);fill-opacity:1;stroke:none;stroke-width:1px;stroke-linecap:butt;stroke-linejoin:miter;stroke-opacity:1"
           d="m 4e-6,0 16,15.998047 V 239.99805 L 0,256 Z"
           id="path5283" />
        <path
           style="fill:url(#linearGradient5301);fill-opacity:1;stroke:none;stroke-width:1px;stroke-linecap:butt;stroke-linejoin:miter;stroke-opacity:1"
           d="m 255.99805,-0.001953 -15.99804,16 H 16.000004 L -0.001946,-0.001957 Z"
           id="path5285" />
        <path
           style="fill:url(#linearGradient5303);fill-opacity:1;stroke:none;stroke-width:1px;stroke-linecap:butt;stroke-linejoin:miter;stroke-opacity:1"
           d="M 256,255.99609 240,239.99805 V 15.998047 l 16.00001,-16.00195 z"
           id="path5287" />
        <path
           style="fill:url(#linearGradient5305);fill-opacity:1;stroke:none;stroke-width:1px;stroke-linecap:butt;stroke-linejoin:miter;stroke-opacity:1"
           d="m 0.001964,255.99805 15.99804,-16 H 240 l 16.00195,16.00001 z"
           id="path5289" />
      </g>
      <path
         id="rect5417"
         style="fill:#80c0ff;fill-opacity:1;stroke:none;stroke-width:25.7652;stroke-miterlimit:4;stroke-dasharray:none"
         d="M 1595.8704,-80.517293 V 111.48271 h 192 V -80.517293 Z m 61.2774,16 h 4.3066 l 6.834,32 h -4.2266 l -1.4629,-8.058594 h -6.5175 l -1.541,8.058594 h -4.1875 z m 14.3789,0 h 7.9414 c 2.7654,0 4.768,0.750718 6.0058,2.251953 1.2643,1.501236 1.8965,3.700535 1.8965,6.597657 0,2.607409 -0.6724,4.635423 -2.0156,6.083984 -1.3432,1.448561 -3.2929,2.171875 -5.8476,2.171875 h -3.5157 v 14.894531 h -4.4648 z m 18.9648,0 h 6.4395 c 3.2395,0 5.6081,0.672414 7.1094,2.015625 1.5275,1.316874 2.2929,3.476045 2.2929,6.478516 0,4.108645 -1.3174,6.59766 -3.9511,7.466797 l 4.5429,16.039062 h -4.3066 l -4.1875,-15.011718 h -3.4766 v 15.011718 h -4.4629 z m 20.7403,0 h 4.3847 v 32 h -4.3847 z m 9.5605,0 h 4.4629 v 28.800782 h 8.1777 v 3.199218 h -12.6406 z m -44.8008,3.199219 v 10.707031 h 2.0547 c 1.3169,0 2.3299,-0.145834 3.041,-0.435547 0.7375,-0.289712 1.266,-0.788888 1.5821,-1.5 0.316,-0.711111 0.4726,-1.73882 0.4726,-3.082031 0,-1.632923 -0.1184,-2.831916 -0.3554,-3.595703 -0.2372,-0.763787 -0.7108,-1.303091 -1.4219,-1.619141 -0.6848,-0.316049 -1.7781,-0.474609 -3.2793,-0.474609 z m 18.9629,0 v 10.587891 h 1.6992 c 1.9227,0 3.293,-0.380745 4.1094,-1.144532 0.8428,-0.763786 1.2637,-2.14679 1.2637,-4.148437 0,-1.316873 -0.1459,-2.344582 -0.4356,-3.082031 -0.2897,-0.763787 -0.8035,-1.315816 -1.541,-1.658204 -0.7374,-0.368724 -1.7759,-0.554687 -3.1191,-0.554687 z m -35.6347,3.121094 -2.6465,14.419922 h 5.334 z m -47.4493,41.679687 h 160 V 95.482711 h -160 z m 80.1172,8 c -7.9806,0 -13.8693,2.790437 -17.666,8.369141 -3.7966,5.578704 -5.6953,12.976908 -5.6953,22.197265 0,8.755467 1.5114,15.498208 4.5332,20.22461 3.0993,4.64892 8.3287,6.972656 15.6894,6.972656 3.3318,0 6.1202,-0.581911 8.3672,-1.74414 2.3245,-1.162231 4.108,-2.74914 5.3477,-4.763672 v 14.294922 c 0,13.404387 -3.4876,20.105472 -10.4609,20.105472 -4.0291,0 -6.8573,-1.12216 -8.4844,-3.36914 -1.5497,-2.324464 -2.3242,-5.88948 -2.3242,-10.693364 h -12.4356 v 1.046875 c 0.1549,7.515752 2.2086,13.287339 6.1602,17.316409 3.9516,4.02906 9.608,6.04297 16.9687,6.04297 8.2906,0 14.2171,-3.06056 17.7813,-9.18164 3.5641,-6.12108 5.3457,-14.256113 5.3457,-24.406254 V 22.281535 c 0,-9.142876 -1.9365,-16.541079 -5.8106,-22.197265 -3.7966,-5.733668 -9.5682,-8.601563 -17.3164,-8.601563 z m 0,10.228516 c 7.0509,0 10.5762,5.888752 10.5762,17.666016 v 13.947265 c -2.4794,4.338992 -6.0047,6.507813 -10.5762,6.507813 -3.3317,0 -5.7726,-0.891742 -7.3222,-2.673828 -1.5497,-1.782086 -2.5189,-4.06807 -2.9063,-6.857422 -0.3874,-2.789352 -0.5801,-6.547036 -0.5801,-11.273438 0,-5.113812 0.8123,-9.258785 2.4395,-12.435547 1.7046,-3.254244 4.4951,-4.880859 8.3691,-4.880859 z" />
    </g>
  </g>
</svg>
