<?xml version="1.0" encoding="UTF-8" standalone="no"?>
<!-- Created with Inkscape (http://www.inkscape.org/) -->

<svg
   width="256"
   height="256"
   viewBox="0 0 256 256"
   version="1.1"
   id="svg5"
   inkscape:version="1.1.2 (0a00cf5339, 2022-02-04)"
   sodipodi:docname="gold.svg"
   xmlns:inkscape="http://www.inkscape.org/namespaces/inkscape"
   xmlns:sodipodi="http://sodipodi.sourceforge.net/DTD/sodipodi-0.dtd"
   xmlns:xlink="http://www.w3.org/1999/xlink"
   xmlns="http://www.w3.org/2000/svg"
   xmlns:svg="http://www.w3.org/2000/svg">
  <sodipodi:namedview
     id="namedview7"
     pagecolor="#ffffff"
     bordercolor="#666666"
     borderopacity="1.0"
     inkscape:pageshadow="2"
     inkscape:pageopacity="0.0"
     inkscape:pagecheckerboard="0"
     inkscape:document-units="px"
     showgrid="false"
     inkscape:zoom="0.4692965"
     inkscape:cx="1108.0415"
     inkscape:cy="-40.486132"
     inkscape:window-width="1902"
     inkscape:window-height="1037"
     inkscape:window-x="8"
     inkscape:window-y="8"
     inkscape:window-maximized="1"
     inkscape:current-layer="layer1"
     units="px"
     width="1024px" />
  <defs
     id="defs2">
    <linearGradient
       inkscape:collect="always"
       id="linearGradient13390">
      <stop
         style="stop-color:#ffff00;stop-opacity:1"
         offset="0"
         id="stop13386" />
      <stop
         style="stop-color:#ffc000;stop-opacity:1"
         offset="1"
         id="stop13388" />
    </linearGradient>
    <radialGradient
       inkscape:collect="always"
       xlink:href="#linearGradient13390"
       id="radialGradient13392"
       cx="1990.2827"
       cy="604.49878"
       fx="1990.2827"
       fy="604.49878"
       r="64"
       gradientUnits="userSpaceOnUse"
       gradientTransform="matrix(1,0,0,0.99999731,-401.72142,-293.49593)" />
  </defs>
  <g
     inkscape:label="Layer 1"
     inkscape:groupmode="layer"
     id="layer1">
    <g
       id="g21008"
       transform="translate(-1460.5613,-183.00084)">
      <path
         id="path11753"
         style="fill:#000000;fill-opacity:1;stroke:none;stroke-width:0.0210558"
         d="m 1552.4427,183.00084 c 1.4952,4.88984 3.7005,12.18245 4.4433,14.55074 3.4952,11.11746 6.842,20.59294 8.2949,23.43549 l 0.4219,0.84178 -1.4121,0.8418 c -2.5899,1.53708 -3.5369,3.38976 -4.2949,8.33787 -0.5054,3.47421 -0.8624,4.67567 -1.6836,5.91795 -0.8844,1.32652 -2.1903,2.25117 -6.1699,4.41991 -3.5584,1.93714 -6.8423,3.93747 -9.2637,5.66405 -26.762,19.11864 -38.7654,52.66086 -30.2168,84.37087 5.7272,21.14 20.1303,39.1003 39.5859,49.31237 8.2118,4.31642 16.9705,7.07556 26.8457,8.48629 3.7269,0.5264 13.3289,0.63163 17.5821,0.18946 18.0659,-1.83185 34.3214,-9.39081 47.1445,-21.8769 13.3283,-13.01247 21.3083,-29.5842 23.3086,-48.40807 0.4211,-3.97955 0.2945,-13.89593 -0.2109,-17.51753 -1.6213,-11.37012 -5.117,-21.47718 -10.5703,-30.53117 -7.8329,-12.97036 -18.1288,-22.59218 -32.1309,-30.00382 -6.1483,-3.26364 -6.9898,-4.31649 -7.832,-9.79099 -0.8001,-5.11656 -1.7057,-7.15893 -3.7481,-8.44334 -0.6317,-0.40006 -0.8006,-0.63209 -0.6953,-0.88476 1.2634,-2.98992 3.5589,-10.44301 5.875,-19.1601 0.7884,-2.94319 3.2143,-12.56099 5.0508,-19.7519 z m 15.4961,43.92371 c 0.084,0 0.4217,0.42086 0.8007,0.94726 l 0.6739,0.94726 h 13.4336 c 7.3906,0 16.1712,-0.0623 19.498,-0.14648 6.0431,-0.12633 6.0642,-0.12747 6.5274,-0.63281 0.4632,-0.48428 0.4627,-0.50512 0.8417,-0.084 0.8422,0.92646 0.5051,3.70668 -0.5898,5.03319 -0.9475,1.11595 -3.094,1.3669 -6.4629,0.77734 -9.9173,-1.70551 -19.0353,-1.68385 -29.1211,0.12695 -4.0216,0.71589 -5.6846,0.48387 -6.6953,-0.88476 -1.0317,-1.36862 -1.3265,-3.47344 -0.6738,-4.56834 0.2948,-0.50534 1.4728,-1.51562 1.7676,-1.51562 z" />
      <ellipse
         style="fill:url(#radialGradient13392);fill-opacity:1;stroke:none;stroke-width:23.3577;stroke-miterlimit:4;stroke-dasharray:none"
         id="path11990"
         cx="1588.5613"
         cy="311.00122"
         rx="64"
         ry="63.999828" />
      <path
         id="path11657"
         style="fill:#ffc000;fill-opacity:1;stroke:none;stroke-width:0.0198021"
         d="m 1654.7641,220.39133 c -0.04,0 -0.1993,0.25609 -0.3578,0.55312 l -0.296,0.57439 1.3848,1.14879 c 2,1.66338 3.4463,3.42692 6.0998,7.40715 2.6337,3.96041 3.6437,5.38617 6.3764,9.02975 3.3268,4.45547 3.3061,4.43531 11.4646,10.9502 1.7822,1.44555 3.3469,2.6128 3.4657,2.6128 0.1188,0 0.376,-0.11859 0.5937,-0.25722 0.3367,-0.25741 0.3371,-0.337 -0.099,-2.13898 -1.0099,-4.15843 -2.97,-9.44556 -4.6532,-12.59408 -1.4852,-2.7921 -2.2782,-3.84037 -4.9317,-6.51365 -4.4356,-4.41585 -9.7411,-7.58475 -16.7114,-10.0006 -1.2476,-0.41585 -2.2967,-0.77167 -2.3363,-0.77167 z m -135.056,1.83342 c -0.3268,0.0272 -0.8969,0.22476 -1.996,0.6208 -8.3961,3.06931 -16.0399,8.47578 -19.7033,13.98075 -2.1189,3.16833 -4.3356,8.73289 -5.6821,14.15868 -0.9307,3.82179 -0.932,3.60335 -0.2786,3.92016 l 0.5551,0.29784 4.8524,-4.13871 c 5.6237,-4.79211 6.812,-5.97995 9.1091,-9.20769 1.7623,-2.45547 6.4547,-9.50532 8.3161,-12.49545 0.7326,-1.16831 1.8413,-2.49452 3.3264,-3.99947 2.0793,-2.07922 2.2384,-2.29707 2.0403,-2.73272 -0.1287,-0.28713 -0.2127,-0.43142 -0.5394,-0.40419 z m 160.718,10.44349 c -0.079,0 -0.2955,0.21787 -0.4738,0.4951 -0.3168,0.47525 -0.2776,0.55387 1.5046,3.50437 2.8318,4.7129 3.2466,5.9011 5.4248,15.40609 1.2674,5.54459 2.5558,10.13875 3.4271,12.25757 0.3365,0.81189 0.613,1.50519 0.613,1.56459 0,0.0793 -0.3968,-0.51529 -0.8721,-1.30737 -2.6733,-4.33666 -5.109,-6.6932 -11.1882,-10.93086 -5.406,-3.76239 -9.8011,-7.72161 -11.3061,-10.15726 -0.6336,-1.02971 -0.7321,-1.12983 -1.2667,-1.03082 -0.3168,0.0594 -0.6141,0.13832 -0.6537,0.17793 -0.1385,0.11882 0.7317,4.04006 1.2068,5.36679 1.109,3.20794 2.04,4.75373 5.2875,8.81315 2.7922,3.48516 4.2781,4.90932 12.0604,11.58262 6.5544,5.64359 7.0684,6.13973 9.4842,9.14965 l 1.6245,2.03843 0.4951,-0.33653 c 0.3565,-0.23762 0.4757,-0.43401 0.3966,-0.73104 -0.3763,-1.32675 -0.5152,-5.58545 -0.3172,-9.30824 0.4158,-8.05946 0.4345,-9.56478 0.2166,-12.07965 -0.5148,-5.98023 -2.0987,-10.73291 -4.9897,-15.06957 -1.6634,-2.49506 -5.1674,-5.8596 -8.0783,-7.78041 -1.3465,-0.89108 -2.5161,-1.62454 -2.5954,-1.62454 z m -186.061,2.37687 -1.8005,1.22614 c -7.9803,5.44558 -12.16,12.43646 -13.1105,21.92167 -0.2971,2.8911 -0.2559,4.97046 0.1798,10.51505 0.4356,5.24755 0.514,9.90107 0.1972,11.76248 -0.1782,1.06931 -0.1584,1.18779 0.2573,1.50462 0.2377,0.19802 0.4952,0.31617 0.5745,0.27657 0.059,-0.0396 0.9307,-1.12841 1.901,-2.41555 2.0792,-2.71287 3.9803,-4.59359 10.4359,-10.3758 5.9603,-5.34657 8.1589,-7.60305 10.9115,-11.30604 2.99,-3.98023 4.3748,-6.85278 5.1076,-10.63498 0.5941,-3.14853 0.594,-2.91081 -0.079,-3.06923 -0.3367,-0.0792 -0.6533,-0.0996 -0.6731,-0.0599 -0.02,0.0198 -0.2569,0.41723 -0.5143,0.85289 -0.6931,1.16833 -2.5541,3.38498 -3.9996,4.77112 -2.0396,1.9604 -3.6046,3.22927 -7.8422,6.39761 -5.3665,4.01982 -8.099,6.85082 -10.2773,10.63302 -0.396,0.69307 -0.7533,1.22662 -0.7929,1.20681 -0.02,-0.0396 0.2189,-0.73143 0.5357,-1.54332 0.8119,-2.09902 1.9992,-6.83217 3.2665,-13.06984 0.5942,-2.99011 1.328,-6.27687 1.6052,-7.30658 0.5743,-2.17824 1.822,-4.91136 3.7229,-8.09951 l 1.3461,-2.25695 -0.4758,-0.47576 z m 204.3778,16.23769 c -0.099,0 -0.3565,0.13748 -0.5743,0.2959 -0.3565,0.27723 -0.3559,0.31753 0.1391,1.54526 1.307,3.26734 1.8016,6.73302 1.5047,10.67364 -0.1189,1.44555 -0.4553,6.69157 -0.7523,11.66189 l -0.5338,9.02977 0.4352,5.12891 c 0.2575,2.81189 0.4956,5.42569 0.555,5.80194 0.1782,1.18811 -0.059,0.55498 -0.6537,-1.76185 -1.0891,-4.25746 -2.4945,-7.52449 -4.4946,-10.5344 -1.0495,-1.58417 -2.0805,-2.69339 -6.1597,-6.6142 -5.8417,-5.62381 -7.9594,-7.74271 -8.9892,-9.10906 -0.6534,-0.85148 -0.8524,-0.99012 -1.288,-0.9109 -0.6931,0.1188 -0.7525,0.3765 -0.4951,2.05968 0.4951,3.22774 2.1391,7.92091 3.9608,11.34667 0.9505,1.76238 4.0989,6.39667 9.287,13.64423 3.208,4.49508 4.5152,6.51489 5.7826,9.02976 0.9505,1.88119 2.1984,4.79195 2.8913,6.63354 0.3961,1.08914 0.5732,1.28611 1.2068,1.28611 0.3366,0 0.4754,-0.15707 0.5745,-0.55312 1.0891,-4.7921 2.8329,-11.05089 4.3378,-15.68458 2.2377,-6.87132 2.8114,-9.88038 3.0094,-15.44477 0.1782,-5.16835 -0.3557,-8.8711 -1.9399,-13.76221 -0.8514,-2.67328 -2.9907,-7.10946 -4.5352,-9.50552 -1.406,-2.15843 -3.0308,-4.25669 -3.2684,-4.25669 z m -222.3369,2.7714 c -0.04,0 -0.5738,0.69229 -1.168,1.52398 -3.9802,5.60398 -6.1588,10.85265 -7.5251,18.17941 -0.4158,2.19804 -0.337,9.7811 0.099,12.47418 0.5545,3.26733 1.5243,6.85185 3.1678,11.58454 1.604,4.63368 2.5151,7.54615 3.8022,12.27886 l 0.851,3.06921 h 0.615 c 0.6139,0 0.6528,-0.0611 1.1875,-1.58587 2.0198,-5.7228 3.6632,-8.69177 10.2771,-18.61263 7.0892,-10.5743 8.4358,-13.16803 9.9407,-19.06904 0.3367,-1.34654 0.8311,-4.77322 0.6924,-4.93165 -0.02,-0.0396 -0.2962,-0.0992 -0.613,-0.15859 -0.5149,-0.099 -0.6332,-0.0203 -1.2668,0.93024 -0.3762,0.57426 -3.5445,3.94187 -7.0494,7.48644 -6.9902,7.06935 -7.8616,8.17864 -9.6042,12.07964 -0.9703,2.17825 -2.0396,5.44482 -2.7328,8.31613 -0.2771,1.12872 -0.3765,1.38505 -0.317,0.79099 0.04,-0.49505 0.2177,-3.24734 0.4157,-6.13845 l 0.3365,-5.24689 -0.7329,-8.91178 c -0.4159,-4.91091 -0.8522,-10.15842 -0.9709,-11.68318 -0.3564,-4.17823 -0.04,-6.98852 1.2475,-10.6717 0.2178,-0.65347 0.3776,-1.18894 0.3577,-1.20875 -0.1188,-0.099 -0.9304,-0.49509 -1.0096,-0.49509 z m 234.318,31.4852 v 2.21828 c 0,5.90103 -0.6134,8.90982 -3.0887,15.20688 -5.8614,14.95058 -6.1992,15.94219 -6.9912,20.81351 -0.6734,4.05942 -1.1481,6.53316 -1.3462,6.69157 -0.059,0.0594 -0.06,-0.157 0.019,-0.47383 0.2773,-1.08911 0.1587,-6.67461 -0.1779,-8.89244 -0.9505,-6.43568 -2.4343,-10.03868 -7.761,-18.9298 -3.6833,-6.15845 -4.1405,-7.00977 -4.8138,-8.87117 -0.396,-1.10892 -0.4946,-1.22808 -1.0095,-1.22808 -0.297,0 -0.5929,0.06 -0.6325,0.13924 -0.1782,0.29704 0.2558,5.92068 0.6518,8.87118 1.1089,7.94064 2.4374,13.70203 4.8929,21.16741 2.5149,7.72281 3.5036,11.62357 4.0383,15.99983 0.2179,1.74258 0.1394,5.70379 -0.118,6.59487 -0.099,0.31684 -9e-4,0.45466 0.4545,0.61307 l 0.5743,0.21854 2.2377,-3.36706 c 1.2476,-1.8614 3.3081,-4.7124 4.5952,-6.31637 3.9208,-4.91092 6.2569,-8.63317 8.1381,-13.02924 2.6733,-6.19804 3.8619,-11.72306 4.0401,-18.7132 0.1584,-5.98023 -0.3379,-10.47621 -1.7637,-16.199 l -0.6325,-2.51419 h -0.6537 z m -246.2043,3.10597 c -0.2283,-0.003 -0.4059,0.0521 -0.4505,0.14118 -0.1981,0.61386 -0.8716,3.58574 -1.1488,5.07091 -0.9307,5.08913 -1.2091,12.55296 -0.615,17.04803 1.3663,10.4357 5.0895,18.85307 12.0005,27.11054 2.6138,3.12873 6.5558,8.41578 7.645,10.27718 0.02,0.0396 0.3151,-0.0413 0.6517,-0.17986 0.3961,-0.15842 0.5757,-0.35557 0.5163,-0.53379 -0.079,-0.1584 -0.2177,-1.12907 -0.3365,-2.13898 -0.4951,-4.27725 0.6122,-10.39656 3.8796,-21.18869 1.6437,-5.50498 2.358,-8.5337 3.2491,-13.95947 0.8515,-5.14855 1.2074,-8.49619 1.3461,-12.29819 l 0.1179,-3.28583 -0.4738,-0.1199 c -0.7327,-0.19803 -0.7337,-0.19718 -1.0308,0.79294 -0.4752,1.62376 -1.3652,3.34595 -4.276,8.47469 -3.3269,5.80201 -4.6736,8.41655 -5.624,10.99081 -2.0793,5.60399 -2.9115,12.17842 -2.2183,17.72301 0.2375,1.90099 -0.3377,-0.45617 -1.2881,-5.18888 -1.0693,-5.44557 -1.7616,-7.52401 -4.7518,-14.61316 -4.693,-11.10896 -4.9318,-11.72246 -5.4267,-14.09872 -0.5348,-2.53466 -0.911,-6.0211 -0.911,-8.39734 v -1.52398 l -0.613,-0.0793 c -0.084,-0.0148 -0.1656,-0.0222 -0.2419,-0.0231 z m 221.6774,33.45594 c -0.257,0.0231 -0.35,0.33901 -0.7214,1.55685 -1.9604,6.41586 -3.1081,14.83208 -3.7615,27.82226 -0.4357,8.41586 -0.9118,12.93158 -1.7039,16.11971 -0.2178,0.85149 -1.0088,3.10801 -1.7811,5.00901 -1.3069,3.30695 -1.367,3.48639 -1.0502,3.84283 0.1782,0.21782 0.455,0.37518 0.5937,0.37518 0.3563,0 10.7141,-6.95124 13.7835,-9.24829 9.9604,-7.48519 15.9207,-13.99895 19.7228,-21.50393 3.0099,-5.94062 4.5151,-13.58409 3.8814,-19.72274 -0.1385,-1.18813 -0.1383,-1.20873 -0.7522,-1.20873 -0.5743,0 -0.6536,0.0804 -0.9901,1.0308 -0.6536,1.8812 -2.3971,5.56371 -3.5258,7.48451 -1.9208,3.24754 -3.5255,5.32766 -6.5948,8.49598 -4.2971,4.45547 -6.8113,7.70255 -12.5341,16.25705 -3.4258,5.10893 -4.2169,6.19824 -4.3555,6.03982 -0.059,-0.0594 0.1773,-0.49515 0.5338,-0.99021 2.3763,-3.30695 3.6243,-8.49536 3.6243,-15.14887 0.02,-4.8713 -0.1401,-6.13971 -1.8431,-15.44669 -0.7723,-4.19804 -1.4447,-8.27589 -1.5239,-9.08778 -0.1386,-1.40596 -0.178,-1.48593 -0.6731,-1.62455 -0.1386,-0.0347 -0.243,-0.06 -0.3288,-0.0522 z m -195.5549,2.49289 c -0.1448,-0.009 -0.3204,0.0354 -0.5531,0.0948 -0.2971,0.0792 -0.3578,0.31689 -0.3578,1.40599 0,0.73269 -0.5345,4.67204 -1.1681,8.75127 -1.5248,9.6238 -1.6623,11.14957 -1.5433,16.27832 0.099,4.43566 0.3166,6.1389 1.2473,9.26763 0.5347,1.76239 1.8409,4.57362 2.435,5.24689 0.198,0.21783 0.5156,0.65357 0.7136,0.9902 0.7129,1.22774 -1.0694,-0.91022 -2.8121,-3.42509 -6.7326,-9.5842 -9.4451,-12.99012 -13.9401,-17.5644 -3.8615,-3.90103 -4.6548,-4.85241 -6.4963,-7.58508 -1.3664,-2.01982 -3.6436,-6.31766 -4.4753,-8.41669 -0.4553,-1.1089 -0.6134,-1.3267 -1.0094,-1.3267 -0.7129,0 -0.8723,0.57416 -0.8723,3.06923 0,6.01982 1.2087,11.19006 3.8621,16.65543 4.8913,10.03965 13.5641,18.09767 31.0889,28.8898 1.7229,1.0693 3.3083,1.98096 3.5063,2.04035 0.1981,0.0396 0.5331,-0.0596 0.731,-0.23787 0.3565,-0.33663 0.3176,-0.45511 -1.1082,-3.74225 -0.8119,-1.88119 -1.643,-4.03993 -1.841,-4.79241 -0.9109,-3.28714 -1.5638,-8.2773 -2.1777,-16.73279 -0.9109,-12.07928 -2.0596,-19.5454 -4.0595,-26.39691 -0.5792,-1.94555 -0.7356,-2.44277 -1.17,-2.4697 z m 186.8346,24.25212 -1.4659,1.46597 c -1.8614,1.88119 -3.5244,4.4152 -5.4848,8.3954 -1.3664,2.7525 -2.0395,4.57585 -5.2276,14.10066 -2.0198,6.01982 -4.0807,11.89958 -4.5758,13.0679 -2.0198,4.67329 -4.8697,9.6434 -6.6124,11.52459 -0.8713,0.9505 -0.951,1.14838 -0.555,1.66322 0.2179,0.31685 0.4164,0.27782 2.7134,-0.35585 4.1783,-1.18813 7.6428,-2.01854 11.8805,-2.87002 10.7922,-2.15844 19.1484,-6.59421 26.4356,-14.07939 5.307,-5.44557 9.0096,-11.60501 11.7026,-19.42683 l 0.4564,-1.34605 -0.4351,-0.29783 c -0.2375,-0.15841 -0.476,-0.2959 -0.5551,-0.2959 -0.079,0 -1.3859,1.44416 -2.9106,3.20653 -4.6139,5.38618 -7.1293,7.60461 -10.8324,9.58482 -8.594,4.57428 -22.8913,13.6446 -26.3369,16.69411 -0.3168,0.27723 -0.099,-0.0597 0.4951,-0.73298 5.3466,-6.21784 8.2176,-12.81286 9.2077,-21.16935 1.0891,-9.20796 1.6237,-12.57487 2.5741,-16.29765 l 0.4758,-1.87983 -0.4758,-0.47576 z m -177.3677,2.43683 c -0.1189,0 -0.3764,0.17716 -0.5744,0.37517 -0.3169,0.37624 -0.3172,0.47486 0.1779,2.33626 0.9505,3.66338 2.2766,10.79287 2.5934,14.21863 0.079,0.75248 0.3974,2.67251 0.6944,4.25669 1.4852,7.50498 4.7312,13.98049 9.4242,18.71319 0.6338,0.65347 0.9722,1.04999 0.7544,0.89158 -0.2377,-0.15842 -1.3285,-0.95091 -2.4176,-1.72319 -5.1881,-3.74259 -13.8611,-8.91125 -23.2078,-13.82216 -6.1782,-3.24753 -7.6232,-4.45488 -14.7718,-12.53412 -0.5544,-0.63368 -0.6335,-0.67278 -1.0888,-0.43515 -0.2575,0.13861 -0.4946,0.27609 -0.5144,0.29589 -0.1188,0.0793 1.009,3.09085 1.9397,5.22949 4.6535,10.47529 12.1589,18.55286 22.0204,23.68159 5.0891,2.65348 9.4247,4.08079 15.2862,5.07089 3.9803,0.67327 7.6053,1.44433 11.5459,2.45423 1.4456,0.37624 2.7527,0.69429 2.8914,0.69429 0.1384,0 0.3549,-0.21832 0.4737,-0.47575 0.1782,-0.41585 0.1383,-0.53576 -0.3965,-1.0308 -0.9109,-0.87129 -2.7723,-3.42498 -4.0594,-5.58341 -2.4158,-4.11884 -4.0987,-8.01939 -7.3859,-17.16795 -1.7425,-4.91091 -3.5444,-9.90132 -3.9801,-11.08944 -0.9901,-2.69309 -2.9493,-6.49518 -4.6919,-9.10905 -1.2476,-1.8812 -4.2774,-5.24688 -4.713,-5.24688 z m 160.1765,24.58862 c -0.2599,-0.01 -0.6222,0.12311 -1.1468,0.40034 -2.1189,1.10891 -5.168,4.00061 -10.1187,9.5848 -6.4554,7.28716 -10.2165,11.08942 -13.1471,13.32707 -1.5446,1.16831 -5.9213,3.64295 -8.5155,4.83107 -1.6236,0.75247 -4.1398,1.62333 -5.2487,1.84115 -0.6138,0.11882 -0.6924,0.1998 -0.6924,0.75426 v 0.61308 l 8.7725,1.74249 c 4.812,0.95052 10.6733,2.17827 13.0099,2.73273 4.1585,0.99009 4.3565,1.00916 8.0397,1.10817 2.891,0.0792 4.3365,0.0195 6.2176,-0.23788 5.7229,-0.77228 11.3465,-2.71109 16.1585,-5.54278 4.8515,-2.87132 9.7622,-7.54514 12.8513,-12.23823 l 0.7524,-1.14879 -0.4158,-0.41581 -0.4158,-0.43515 -1.1488,0.91092 c -4.9506,3.88119 -11.4447,6.47542 -18.5141,7.36652 -1.3267,0.17821 -4.5354,0.39563 -7.0899,0.51444 -5.4655,0.21782 -10.8317,0.87026 -17.901,2.197 -1.1684,0.21782 -2.1787,0.35676 -2.2183,0.31717 -0.04,-0.0396 0.6948,-0.35674 1.6651,-0.73296 3.6832,-1.38616 5.6233,-2.63286 7.9796,-5.08831 3.0297,-3.16834 5.8415,-8.03985 9.2078,-15.98049 1.0298,-2.41585 2.0391,-4.61335 2.257,-4.91036 0.3169,-0.41585 0.3576,-0.63432 0.1991,-1.05017 -0.1189,-0.29703 -0.2777,-0.45038 -0.5376,-0.46028 z m -142.5018,1.78312 c -0.2352,0.0347 -0.3483,0.22183 -0.4275,0.57827 -0.099,0.45545 -0.039,0.71205 0.2572,1.02887 0.2179,0.23764 1.2282,2.25886 2.2183,4.49651 2.3763,5.32675 4.0199,8.45427 6.0398,11.48398 3.4852,5.22774 6.2562,7.486 11.4048,9.32758 2.1584,0.77229 2.9907,1.14852 1.9611,0.91091 -0.812,-0.19803 -7.3265,-1.1096 -10.9503,-1.54525 -2.1386,-0.25743 -5.6439,-0.47537 -9.3469,-0.57438 -6.1586,-0.17822 -7.9204,-0.33628 -11.2868,-1.00955 -4.7525,-0.9703 -10.0397,-3.2074 -13.6635,-5.82129 l -1.7832,-1.26675 -0.4352,0.41582 c -0.5347,0.49503 -0.5338,0.47349 1.2881,2.88935 6.5545,8.63371 16.4556,14.17917 28.0795,15.70393 2.099,0.25743 7.8616,0.23856 9.5249,-0.0387 0.7524,-0.11881 3.5841,-0.79222 6.297,-1.4853 4.1188,-1.02971 19.941,-4.63382 20.3766,-4.63382 0.079,0 0.1169,-0.27791 0.077,-0.63435 -0.059,-0.59405 -0.099,-0.63429 -1.7425,-1.05014 -2.396,-0.61387 -3.8992,-1.22633 -7.8597,-3.20654 -2.3762,-1.18812 -4.1205,-2.23733 -5.566,-3.32646 -2.1981,-1.64356 -6.9299,-6.25906 -14.9497,-14.59574 -4.1981,-4.37625 -6.6933,-6.5541 -8.3567,-7.30659 -0.5644,-0.25742 -0.9214,-0.37503 -1.1565,-0.34038 z m 85.4318,28.77764 c -0.948,0.0157 -1.7853,0.0536 -2.3943,0.11797 -2.4555,0.25744 -6.0594,0.98965 -9.0297,1.84116 l -2.3749,0.67301 -1.3867,-0.37518 c -4.8911,-1.38616 -8.415,-1.86288 -13.5438,-1.84308 -7.3268,0.0198 -8.9707,0.41676 -19.7034,4.93164 -17.7427,7.46539 -18.0996,7.58364 -24.3373,8.0589 -6,0.43565 -11.8226,-0.49389 -15.5454,-2.53351 l -1.2666,-0.6943 -0.416,0.39646 -0.3964,0.41581 0.4951,0.51444 c 1.4257,1.54456 6.0798,4.83139 9.0897,6.47497 3.4258,1.84157 8.0786,3.36811 11.8805,3.90277 2.1386,0.29703 6.9309,0.31636 9.1092,0.0193 6.4356,-0.8911 13.3066,-4.25755 20.3956,-10.01995 1.1487,-0.9307 2.7936,-2.27754 3.665,-2.9706 2.5346,-2.05941 6.0779,-3.72251 9.0879,-4.23736 1.9999,-0.35644 7.4656,-0.23744 7.4458,0.15859 0,0.0594 -0.593,0.37554 -1.2861,0.69237 -4.9901,2.23765 -12.4751,7.32702 -18.2375,12.41616 -2.4555,2.17822 -7.8621,7.66314 -7.7631,7.88097 0.04,0.099 1.2278,1.22804 2.6535,2.55478 l 2.6128,2.39619 1.5859,-1.84113 c 4.3565,-5.04954 11.0886,-11.74288 15.6827,-15.56468 3.0891,-2.59406 6.6333,-5.08882 9.1283,-6.47496 l 1.1083,-0.61501 1.783,0.93024 c 2.2179,1.18812 5.8225,3.6238 8.674,5.88124 4.6139,3.66338 11.2264,9.88177 15.3849,14.47584 1.2277,1.34655 2.2784,2.41601 2.3575,2.3962 0.059,-0.0396 1.2673,-1.14875 2.6534,-2.47549 l 2.5142,-2.41554 -1.2068,-1.3654 c -2.3565,-2.65347 -7.7232,-7.32831 -12.0004,-10.45703 -4.1386,-3.02972 -9.7436,-6.37592 -13.1298,-7.80168 -0.891,-0.37623 -1.6227,-0.75286 -1.6227,-0.81227 0,-0.39603 4.6932,-0.65242 6.8715,-0.37518 4.3565,0.53463 7.7229,2.13884 11.8418,5.62401 2.8515,2.41585 7.8008,5.64337 11.4047,7.46516 4.7723,2.37625 8.2572,3.3068 13.3465,3.48504 9.5049,0.35643 17.7228,-2.812 26.0991,-10.01995 0.9505,-0.81189 1.7232,-1.54534 1.7232,-1.62455 0,-0.0793 -0.1574,-0.3363 -0.3752,-0.59374 l -0.3578,-0.43514 -0.613,0.43514 c -3.4259,2.43567 -10.6937,3.76293 -17.6245,3.20848 -5.3465,-0.41585 -5.1281,-0.35709 -24.2966,-7.84229 -7.0297,-2.73268 -8.0986,-3.08862 -11.2869,-3.58366 -1.7078,-0.26734 -5.5551,-0.42254 -8.3992,-0.3752 z" />
      <path
         style="color:#000000;fill:#ffff00;fill-opacity:1;stroke-width:1.00183;-inkscape-stroke:none"
         d="m 1654.7637,219.13976 c -6e-4,0 -0.1587,0.008 -0.225,0.0195 -0.066,0.012 -0.1238,0.0282 -0.1741,0.045 -0.1007,0.0336 -0.1733,0.0707 -0.2309,0.10371 -0.1154,0.0659 -0.1755,0.1179 -0.2231,0.16044 -0.095,0.0851 -0.1352,0.13598 -0.1722,0.18197 -0.074,0.092 -0.118,0.15828 -0.1644,0.23089 -0.093,0.14524 -0.1811,0.30316 -0.2719,0.47353 v 0.008 l -0.7612,1.47729 2.1582,1.79233 c 1.893,1.57463 3.2272,3.19121 5.8584,7.138 2.6373,3.96575 3.6787,5.43527 6.416,9.0849 3.3242,4.45208 3.5288,4.66524 11.6853,11.17857 0.899,0.72901 1.742,1.38716 2.3852,1.87058 0.3227,0.24249 0.5927,0.44027 0.8081,0.58896 0.1078,0.0743 0.2004,0.13523 0.2974,0.19371 0.048,0.0293 0.095,0.0569 0.1723,0.0939 0.076,0.037 0.063,0.13893 0.583,0.13893 0.4761,1e-5 0.5894,-0.10545 0.7671,-0.18393 0.1776,-0.0784 0.34,-0.16761 0.5009,-0.27002 l 0.045,-0.0274 0.041,-0.0333 c 0.1088,-0.0832 0.3345,-0.24179 0.5185,-0.56744 0.184,-0.32565 0.2254,-0.70366 0.2133,-0.97443 -0.024,-0.54154 -0.1546,-0.98107 -0.3738,-1.88624 v -0.002 c -1.0399,-4.28212 -2.9973,-9.58052 -4.7644,-12.88674 v -0.002 c -1.5102,-2.83855 -2.4661,-4.10535 -5.1461,-6.80535 v -0.002 -0.004 c -4.5773,-4.55675 -10.081,-7.83365 -17.1857,-10.29608 l -0.01,-0.002 -0.01,-0.002 c -0.6221,-0.20733 -1.1942,-0.40012 -1.6201,-0.54199 -0.2131,-0.0709 -0.3894,-0.12983 -0.5206,-0.1722 -0.065,-0.0211 -0.1187,-0.0379 -0.1682,-0.0528 -0.025,-0.007 -0.048,-0.0144 -0.082,-0.0234 -0.017,-0.005 -0.035,-0.008 -0.07,-0.0156 -0.018,-0.004 -0.038,-0.01 -0.074,-0.0156 -0.036,-0.006 -0.1951,-0.0137 -0.1957,-0.0137 z m -135.1605,1.83733 c -0.706,0.0589 -1.2106,0.29287 -2.3148,0.69071 v 0 0.002 c -8.6113,3.14799 -16.4173,8.60288 -20.3163,14.46189 -2.2707,3.39623 -4.4791,9.00953 -5.8544,14.55189 v 0.002 0.004 c -0.464,1.90542 -0.7078,2.7174 -0.7651,3.47507 -0.029,0.37883 0.048,0.97962 0.4188,1.38141 0.3703,0.40181 0.625,0.43064 0.7376,0.48527 l 1.2641,0.67897 5.5023,-4.69214 c 5.6322,-4.79941 6.9847,-6.15917 9.3138,-9.43124 v -0.004 c 1.8113,-2.52405 6.4629,-9.51376 8.357,-12.55607 v -0.004 c 0.6561,-1.04564 1.7076,-2.31583 3.1483,-3.7764 l 0.01,-0.006 c 1.0381,-1.03803 1.5998,-1.59245 1.988,-2.11323 0.1946,-0.26112 0.3803,-0.54971 0.452,-0.96855 0.071,-0.41644 -0.057,-0.83931 -0.1488,-1.04292 v -0.002 c -0.074,-0.16509 -0.1549,-0.43434 -0.5087,-0.74549 -0.3548,-0.31211 -0.9212,-0.42089 -1.2758,-0.39134 z m 137.4831,1.52817 c 6.6255,2.34857 11.6358,5.35992 15.8413,9.54668 2.6195,2.63939 3.2519,3.47156 4.7098,6.21248 v 0.002 0.002 c 1.5989,2.99095 3.5598,8.26389 4.5395,12.29778 0.01,0.0387 0,0.0235 0.014,0.0607 -0.5716,-0.43584 -1.222,-0.93841 -1.9684,-1.54383 v -0.004 -0.002 c -8.1585,-6.51503 -7.914,-6.26665 -11.2412,-10.72264 v 0 -0.002 c -2.7274,-3.63662 -3.707,-5.01854 -6.3357,-8.97142 -2.3174,-3.47614 -3.8276,-5.29138 -5.5512,-6.87579 z m -139.6178,1.81581 c -0.08,0.0805 -0.06,0.0679 -0.1468,0.15458 v 0.004 0.002 c -1.5246,1.54495 -2.6885,2.926 -3.4966,4.21471 v 0.002 0.002 c -1.829,2.93823 -6.5547,10.03843 -8.2689,12.42691 v 0.002 0.002 c -2.263,3.17977 -3.2887,4.19692 -8.901,8.97924 v 0.002 l -3.5182,2.99959 c 0.1115,-0.504 0.1403,-0.68968 0.4169,-1.82558 v -0.006 c 1.3175,-5.30633 3.5403,-10.81797 5.5061,-13.75746 v -0.002 0 c 3.3308,-5.0053 10.5078,-10.1657 18.4164,-13.19981 z m 162.9572,7.09494 c -0.5944,0 -0.692,0.1862 -0.8159,0.2759 -0.1239,0.0897 -0.2051,0.16718 -0.2837,0.2485 -0.154,0.15906 -0.2865,0.33308 -0.4168,0.53417 -0.095,0.14326 -0.303,0.44994 -0.3503,0.88638 -0.047,0.43926 0.071,0.80408 0.2075,1.12119 0.2732,0.63422 0.7266,1.3573 1.6181,2.83328 2.8102,4.67701 3.1022,5.5457 5.2773,15.03714 0.7391,3.23373 1.35,4.90844 2.0231,7.22017 -1.9793,-2.19157 -4.3131,-4.29811 -8.1065,-6.94231 v 0 c -5.3285,-3.70843 -9.7041,-7.76074 -10.9556,-9.7854 v -0.002 c -0.3218,-0.52318 -0.4748,-0.86328 -0.9372,-1.24641 -0.2315,-0.19175 -0.5943,-0.35683 -0.908,-0.39525 -0.3137,-0.0384 -0.5386,0.004 -0.7161,0.0372 v 0 c -0.1874,0.0352 -0.3639,0.0755 -0.5263,0.11936 -0.081,0.0219 -0.1568,0.0431 -0.2485,0.0763 -0.083,0.0302 -0.1675,0.004 -0.4853,0.29938 -0.3308,0.30638 -0.3676,0.54138 -0.3952,0.66723 -0.029,0.13282 -0.031,0.20713 -0.033,0.27198 0,0.12971 0,0.21353 0.012,0.30329 0.017,0.17952 0.046,0.36528 0.084,0.58505 0.075,0.43954 0.1879,0.99593 0.3209,1.59078 0.2649,1.18473 0.5858,2.46728 0.8727,3.27159 2e-4,6.2e-4 -2e-4,0.001 0,0.002 1.1388,3.2939 2.2215,5.09612 5.4924,9.1847 2.0597,2.57083 4.2716,4.70464 7.9089,7.93045 -0.4254,-0.22814 -1.0094,-0.34437 -1.3481,-0.28372 -0.2436,0.0418 -0.5443,0.098 -0.8903,0.33264 -0.3489,0.23668 -0.625,0.68834 -0.7123,1.05269 -0.1743,0.72868 -0.044,1.23036 0.088,2.09562 v 0.002 c 0.5305,3.45857 2.1937,8.17543 4.0915,11.74404 v 0.004 0.002 c 1.0635,1.97194 4.1749,6.52096 9.3706,13.779 3.1972,4.48013 4.4496,6.41968 5.6822,8.86574 v 0 c 0.915,1.81088 2.1656,4.72503 2.8372,6.5099 0.2071,0.5705 0.3444,1.00841 0.771,1.46556 0.4304,0.46124 1.1598,0.63201 1.6064,0.63201 0.3631,0 0.9075,-0.14196 1.2601,-0.49309 0.3527,-0.35112 0.4568,-0.71395 0.5303,-1.00769 v -0.0137 -0.0137 c 1.0772,-4.74016 2.8182,-10.9863 4.3085,-15.57523 v 0.002 c 2.2515,-6.91374 2.8697,-10.15424 3.07,-15.78852 v -0.002 c 0.1819,-5.27274 -0.3835,-9.20012 -1.9977,-14.18598 v -0.004 c -0.9145,-2.86957 -3.0326,-7.25504 -4.6725,-9.7991 v -0.002 -0.004 c -0.7221,-1.10856 -1.4924,-2.19058 -2.1289,-3.01721 -0.3183,-0.41331 -0.6003,-0.7593 -0.8453,-1.03117 -0.1226,-0.13593 -0.2312,-0.25278 -0.364,-0.36981 -0.066,-0.0585 -0.1362,-0.11675 -0.2524,-0.1898 -0.1163,-0.073 -0.2523,-0.2172 -0.7279,-0.2172 -0.6281,0 -0.6482,0.14148 -0.8198,0.2309 -0.1716,0.0894 -0.3319,0.18937 -0.4912,0.30524 l -0.016,0.0117 -0.016,0.0117 c -0.1009,0.0784 -0.2683,0.18158 -0.4638,0.46765 -0.1955,0.28607 -0.2905,0.74795 -0.2642,1.04682 0.053,0.59774 0.2243,0.87093 0.4736,1.48904 1.2329,3.08393 1.7034,6.32979 1.4186,10.11021 -0.1235,1.50369 -0.4563,6.71059 -0.7534,11.68143 l -0.54,9.12011 0.1389,1.63188 c -0.616,-1.27373 -1.2266,-2.54332 -1.9978,-3.70401 v -0.002 c -1.109,-1.67391 -2.2496,-2.89549 -6.3357,-6.82297 v -0.002 c -5.836,-5.61829 -7.9485,-7.75553 -8.8561,-8.95968 v -0.004 -0.004 c -0.145,-0.18908 -0.2932,-0.29708 -0.4206,-0.44809 1.2098,1.06295 1.833,1.66953 3.5827,3.16984 6.5483,5.63833 6.9204,5.98896 9.3236,8.98315 l 2.3442,2.94286 1.4459,-0.98226 c 0.2572,-0.17138 0.5401,-0.37928 0.7612,-0.7768 0.2211,-0.39753 0.2481,-0.95279 0.1507,-1.31881 v -0.01 -0.01 c -0.1032,-0.3639 -0.2711,-1.79985 -0.3267,-3.4555 -0.056,-1.65564 -0.04,-3.62291 0.057,-5.44351 v -0.002 c 0.4161,-8.06554 0.4354,-9.68899 0.2133,-12.25278 -0.5288,-6.14242 -2.1868,-11.14308 -5.1951,-15.65546 -1.8249,-2.73749 -5.3436,-6.09329 -8.4294,-8.13004 v -0.002 c -0.6795,-0.4497 -1.315,-0.85967 -1.7982,-1.16227 -0.2419,-0.15148 -0.4441,-0.2751 -0.6066,-0.36981 -0.081,-0.0474 -0.1506,-0.0878 -0.2269,-0.12718 -0.038,-0.0197 -0.075,-0.0378 -0.1389,-0.0645 -0.063,-0.0268 -0.027,-0.10763 -0.5147,-0.10763 z m -185.9288,2.02322 -0.8375,0.57136 -1.8001,1.22684 c -8.2243,5.61208 -12.6711,13.04377 -13.6519,22.83063 -0.3041,2.96155 -0.2589,5.17795 0.178,10.7383 v 0.002 0.004 c 0.4316,5.19907 0.4645,9.96119 0.2114,11.44858 v 0.002 0.002 c -0.091,0.54946 -0.1893,0.89306 -0.094,1.45186 0.094,0.55355 0.5563,1.04056 0.8179,1.2425 0.1848,0.15054 0.3653,0.27509 0.5773,0.37568 0.1121,0.0532 0.2291,0.1021 0.405,0.14089 0.1759,0.0388 0.4345,0.13876 0.9197,-0.10371 l 0.07,-0.0352 0.066,-0.045 c 0.2597,-0.17382 0.2055,-0.16852 0.2349,-0.19957 0.029,-0.0311 0.05,-0.0547 0.072,-0.0802 0.044,-0.0512 0.092,-0.10905 0.1488,-0.17806 0.1136,-0.13803 0.2615,-0.32254 0.4383,-0.54592 0.3534,-0.44675 0.8195,-1.04645 1.311,-1.69839 2.0223,-2.63759 3.8313,-4.4287 10.2706,-10.19632 0.9599,-0.86104 1.3744,-1.31411 2.1621,-2.03885 -0.1784,0.21445 -0.3817,0.40132 -0.5732,0.68875 v 0.004 0.004 c 0.04,-0.0611 -0.2601,0.32378 -0.6535,0.7631 -0.3935,0.43933 -0.9275,1.02105 -1.5615,1.6945 -1.2679,1.34687 -2.9308,3.06953 -4.6765,4.83497 -3.4999,3.53946 -5.4848,5.59812 -6.8602,7.32975 -1.3753,1.73162 -2.1126,3.13758 -2.9976,5.11869 v 0.002 c -0.01,0.0126 -0.01,0.0343 -0.016,0.047 l 0.1174,-1.82754 -0.7415,-9.00468 v -0.002 c -0.4158,-4.90955 -0.853,-10.16389 -0.9706,-11.6736 v -0.006 -0.004 c -0.347,-4.06829 -0.061,-6.59509 1.1819,-10.15129 v -0.01 -0.008 c 0.1123,-0.33692 0.2088,-0.64351 0.2798,-0.88247 0.035,-0.11947 0.064,-0.21864 0.088,-0.31698 0.012,-0.0492 0.024,-0.0939 0.037,-0.17413 0.01,-0.0401 0.015,-0.0843 0.018,-0.1898 0,-0.0528 0,-0.11861 -0.018,-0.24655 -0.011,-0.064 -0.07,-0.25577 -0.07,-0.25633 -3e-4,-5.5e-4 -0.2795,-0.42429 -0.2798,-0.42459 l -0.041,-0.0411 -0.043,-0.0353 c -0.2528,-0.21056 -0.2849,-0.19519 -0.4011,-0.25828 -0.1162,-0.0631 -0.2428,-0.12762 -0.3699,-0.1898 -0.127,-0.0622 -0.2499,-0.11987 -0.3659,-0.17023 -0.058,-0.0251 -0.1119,-0.0474 -0.18,-0.0724 -0.068,-0.025 0.038,-0.0939 -0.4931,-0.0939 v 0 c -3e-4,0 -0.2755,0.0292 -0.2759,0.0293 -4e-4,8e-5 -0.1304,0.0363 -0.178,0.0548 -0.095,0.037 -0.1541,0.0702 -0.1997,0.0979 -0.091,0.0552 -0.1323,0.0908 -0.1663,0.11936 -0.068,0.0572 -0.096,0.0886 -0.1232,0.1174 -0.055,0.0577 -0.091,0.10204 -0.1331,0.15262 -0.084,0.10117 -0.181,0.22141 -0.2935,0.36786 -0.2249,0.29293 -0.5113,0.68104 -0.816,1.10748 v 0.002 0.002 c -4.0682,5.72791 -6.3441,11.21633 -7.7348,18.6707 -0.2595,1.37163 -0.3142,3.75421 -0.2915,6.29663 0.023,2.54243 0.1396,5.09378 0.3854,6.61165 v 0.004 0.006 c 0.5695,3.35582 1.563,7.01154 3.2208,11.78513 v -0.002 c 1.5989,4.61891 2.4963,7.48415 3.7783,12.198 v 0.004 l 1.1076,3.98968 h 1.5672 c 0.1743,0 0.3966,0.014 0.73,-0.0861 0.3332,-0.10017 0.7031,-0.37806 0.898,-0.63984 0.3895,-0.52304 0.4716,-0.93149 0.7396,-1.69645 v -0.002 c 1.9935,-5.64775 3.5362,-8.42894 10.1357,-18.32829 v -0.004 c 7.0982,-10.58784 8.585,-13.46517 10.1122,-19.45339 v -0.004 -0.002 c 0.1938,-0.77581 0.3972,-1.96422 0.5498,-3.03874 0.076,-0.53725 0.1367,-1.03607 0.1722,-1.43817 0.018,-0.20104 0.03,-0.3744 0.031,-0.54591 7e-4,-0.0858 10e-5,-0.16925 -0.014,-0.28959 -0.011,-0.0976 -0.057,-0.30417 -0.2583,-0.60658 -0.1697,-0.23532 -0.3385,-0.38543 -0.4206,-0.43047 -0.1044,-0.0572 -0.1651,-0.0784 -0.2191,-0.0979 -0.1082,-0.0388 -0.182,-0.0571 -0.2603,-0.0763 -0.1548,-0.038 -0.3135,-0.0686 -0.4794,-0.0998 -0.1677,-0.0323 -0.3795,-0.0752 -0.6751,-0.0489 -0.2337,0.0208 -0.481,0.14329 -0.7024,0.26611 3.6945,-3.43291 6.0964,-5.89853 8.3199,-8.88923 v -0.004 c 3.0497,-4.06069 4.566,-7.18974 5.3319,-11.14334 v -0.004 -0.002 c 0.2959,-1.56862 0.477,-2.17151 0.4559,-2.92328 -0.01,-0.18794 -0.025,-0.4178 -0.1487,-0.68875 -0.1237,-0.27096 -0.3857,-0.54053 -0.6125,-0.67115 -0.4534,-0.26122 -0.6178,-0.21511 -0.7181,-0.23871 -0.2303,-0.0542 -0.4402,-0.0874 -0.6417,-0.1037 -0.1008,-0.008 -0.1927,-0.0129 -0.3327,-0.004 -0.07,0.005 -0.1485,0.006 -0.2974,0.047 -0.1489,0.041 -0.4982,0.0395 -0.8082,0.65939 l 0.2388,-0.32872 c -0.1535,0.152 -0.1315,0.15166 -0.1487,0.17611 -0.017,0.0244 -0.026,0.0385 -0.035,0.0528 -0.019,0.0286 -0.035,0.0541 -0.053,0.0821 -0.035,0.0562 -0.075,0.12275 -0.1233,0.2035 -0.097,0.16149 -0.2227,0.37188 -0.3521,0.59091 -0.5468,0.92095 -2.4372,3.20876 -3.7882,4.5043 -2.0034,1.9257 -3.4974,3.13771 -7.725,6.29857 -3.2784,2.45567 -5.4916,4.56538 -7.3474,6.68601 0.6643,-2.48127 1.2693,-4.33186 2.0564,-8.20635 v -0.004 -0.002 c 0.59,-2.96885 1.3374,-6.30657 1.5849,-7.22606 v -0.002 -0.004 c 0.5261,-1.99558 1.7254,-4.65307 3.5886,-7.77784 l 1.8451,-3.09352 -1.1759,-1.17597 z m 187.5216,1.69645 c 0.1153,0.0757 0.1924,0.12295 0.3111,0.20154 v 0 c 2.7354,1.805 6.2256,5.17949 7.727,7.4315 2.7738,4.16095 4.2833,8.66341 4.784,14.48144 0.2137,2.46594 0.1944,3.85505 -0.2211,11.9084 -0.101,1.90161 -0.115,3.92326 -0.057,5.65874 0.031,0.91163 0.1513,1.42868 0.2211,2.12888 l -0.1351,-0.16827 v -0.002 c -2.428,-3.02515 -3.0871,-3.66769 -9.6444,-9.31384 v -0.002 0 c -7.7752,-6.66726 -9.1379,-7.96944 -11.8986,-11.41532 v 0 c -3.2236,-4.02949 -4.0027,-5.3184 -5.0815,-8.4392 v -0.008 -0.006 c -0.1544,-0.43098 -0.4216,-1.49647 -0.6516,-2.46151 2.0449,2.73687 5.8384,6.117 10.7775,9.55451 6.0294,4.20282 8.2368,6.34031 10.8381,10.56024 0.2424,0.40339 0.4635,0.75797 0.6379,1.01943 0.088,0.13226 0.1589,0.23499 0.2446,0.34437 0.043,0.0547 0.06,0.0966 0.2171,0.23285 0.039,0.0341 0.088,0.0753 0.184,0.13305 0.048,0.0289 0.1096,0.062 0.1976,0.0959 0.044,0.0169 0.1542,0.0488 0.1546,0.0489 4e-4,1e-4 0.2168,0.0333 0.2172,0.0333 8e-4,5e-5 0.6138,-0.11714 0.6144,-0.11741 6e-4,-2.7e-4 0.5182,-0.44945 0.5186,-0.45004 2e-4,-2.9e-4 0.1192,-0.23443 0.1193,-0.2348 10e-5,-3.8e-4 0.045,-0.13549 0.057,-0.19176 0.024,-0.11252 0.027,-0.19562 0.027,-0.26219 0,-0.49312 -0.051,-0.36963 -0.068,-0.42655 -0.018,-0.0569 -0.035,-0.1036 -0.055,-0.15654 -0.038,-0.10586 -0.085,-0.23056 -0.1428,-0.37764 -0.1155,-0.29307 -0.2709,-0.6715 -0.4403,-1.0801 v -0.004 c -0.7944,-1.93276 -2.1042,-6.54766 -3.3636,-12.05712 -2.1808,-9.51658 -2.7188,-11.02659 -5.5706,-15.77285 v 0 -0.002 c -0.3115,-0.51569 -0.3013,-0.52913 -0.5107,-0.88443 z m -189.1477,2.50065 c -1.9229,3.23116 -3.2137,6.02732 -3.8331,8.37658 v -0.006 c -0.3069,1.13992 -1.0256,4.37512 -1.624,7.38649 -1.2608,6.20453 -2.4736,10.96754 -3.2052,12.85934 -0.1634,0.41884 -0.3064,0.8063 -0.4108,1.10749 -0.052,0.1506 -0.093,0.27672 -0.1273,0.3933 -0.017,0.0583 -0.034,0.11027 -0.051,0.1898 -0.01,0.0398 -0.019,0.0839 -0.027,0.17219 0,0.0442 -0.01,0.0983 0,0.19371 0,0.0477 0.01,0.10578 0.023,0.18588 0.016,0.0802 0.1114,0.32224 0.1117,0.32286 l 0.1858,0.36786 0.3699,0.18588 c 6e-4,3.1e-4 0.4962,0.13106 0.497,0.1311 7e-4,4e-5 0.2707,-0.012 0.3658,-0.0352 0.1903,-0.0463 0.2881,-0.10547 0.362,-0.15067 0.1479,-0.0904 0.1979,-0.14592 0.2426,-0.1898 0.089,-0.0878 0.1255,-0.13532 0.1663,-0.18785 0.082,-0.10504 0.1524,-0.20789 0.2349,-0.33263 0.1642,-0.24852 0.3624,-0.57183 0.5713,-0.93726 v -0.004 c 2.0867,-3.62199 4.6379,-6.27949 9.9399,-10.25108 4.2466,-3.17496 5.8831,-4.50198 7.9579,-6.49621 v -0.002 c 1.1713,-1.1233 2.2598,-2.55 3.2032,-3.8312 -0.022,0.11937 -0.011,0.0664 -0.035,0.19567 -0.6992,3.6092 -1.9502,6.2246 -4.8781,10.12195 v 0.002 0.002 c -2.7073,3.64224 -4.7982,5.78999 -10.7422,11.12182 v -0.002 c -6.465,5.79072 -8.4602,7.7649 -10.5936,10.5485 v 0.004 0.004 c -0.1701,0.22564 -0.2918,0.37829 -0.4519,0.58701 0.2492,-2.41643 0.1648,-6.3135 -0.229,-11.0592 v -0.006 c -0.4337,-5.52032 -0.4714,-7.46702 -0.1819,-10.28435 v -0.002 c 0.9022,-9.00367 4.7324,-15.45723 12.1705,-20.68219 z m 207.2178,17.34994 c 0.301,0.43019 0.5766,0.78212 0.8727,1.23663 1.4484,2.24835 3.6042,6.72672 4.3927,9.20231 v 0.002 0.004 c 1.5525,4.79331 2.0529,8.2712 1.8784,13.33286 -0.1956,5.493 -0.7252,8.27181 -2.9488,15.09976 v 0.002 c -1.384,4.26164 -2.8764,9.76327 -3.9779,14.38557 -0.7302,-1.88494 -1.8123,-4.43986 -2.7237,-6.24379 v -0.002 c -1.3017,-2.58276 -2.6629,-4.6847 -5.8799,-9.19253 v 0 -0.002 c -5.1807,-7.23709 -8.3649,-11.95616 -9.2024,-13.50897 -1.6875,-3.17489 -3.2143,-7.58967 -3.7314,-10.58959 1.2019,1.51126 3.0786,3.41064 8.5723,8.69942 4.0701,3.9121 4.9939,4.9105 5.9835,6.40425 1.9186,2.88724 3.2632,5.99738 4.3263,10.15325 0.3005,1.17068 0.4874,1.86882 0.6555,2.32062 0.042,0.11296 -0.012,0.14197 0.2563,0.48135 0.067,0.0849 0.1494,0.22043 0.4559,0.36591 0.076,0.0364 0.2791,0.0938 0.2798,0.0939 7e-4,1.5e-4 0.3711,0.0235 0.3718,0.0234 0,-1.2e-4 0.6954,-0.28859 0.6966,-0.28959 6e-4,-4.9e-4 0.1449,-0.13768 0.1937,-0.20153 0.049,-0.0638 0.084,-0.12242 0.1115,-0.17415 0.055,-0.10345 0.081,-0.18109 0.1002,-0.24459 0.037,-0.12699 0.043,-0.20059 0.049,-0.26023 0.043,-0.4771 -0.016,-0.52994 -0.064,-0.85115 v -0.004 -0.004 c -2e-4,-10e-4 -0.095,-0.86084 -0.1937,-1.90973 -0.099,-1.04888 -0.2235,-2.4055 -0.3522,-3.81162 v 0.008 l -0.4286,-5.03847 0.5284,-8.94011 c 0.2967,-4.96649 0.6369,-10.24115 0.7513,-11.6325 v -0.006 -0.004 c 0.242,-3.21159 -0.1821,-6.11617 -0.9724,-8.90489 z m -224.8045,2.84308 c -0.6892,2.76013 -1.002,5.40279 -0.7201,8.70724 v -0.01 c 0.12,1.53981 0.5566,6.77894 0.9725,11.69121 l 0.724,8.8188 -0.3307,5.15391 v -0.004 c -0.1975,2.88313 -0.3779,5.66275 -0.4128,6.099 -0.017,0.17405 -0.059,0.19495 -0.012,0.56745 0.012,0.0931 -0.037,0.20731 0.2172,0.57527 0.032,0.046 0.121,0.14833 0.1213,0.14869 4e-4,3.7e-4 0.1816,0.15823 0.182,0.1585 7e-4,5.2e-4 0.5685,0.22686 0.5693,0.22697 8e-4,1.1e-4 0.5784,-0.0603 0.5793,-0.0607 9e-4,-3.1e-4 0.261,-0.12227 0.3404,-0.18197 0.318,-0.2388 0.3219,-0.34849 0.364,-0.42655 0.042,-0.078 0.062,-0.126 0.08,-0.17023 0.1407,-0.35384 0.195,-0.62862 0.3365,-1.20533 v -0.002 -0.004 c 0.6751,-2.79632 1.7391,-6.03317 2.6592,-8.09873 0.8576,-1.91988 1.4273,-3.01695 2.6709,-4.58256 1.2434,-1.56561 3.1897,-3.59638 6.68,-7.12626 1.7593,-1.77912 3.4331,-3.51334 4.7197,-4.87996 0.6432,-0.68332 1.1885,-1.27514 1.6044,-1.73951 0.1118,-0.12474 0.1474,-0.18578 0.2368,-0.28568 -0.1381,0.90337 -0.3078,1.90217 -0.4305,2.39303 -1.4817,5.80795 -2.6912,8.12407 -9.7659,18.67658 v 0.002 c -6.5535,9.83018 -8.3235,13.04147 -10.3411,18.71964 l -0.3386,-1.22488 v -0.006 c -1.2913,-4.74757 -2.217,-7.70635 -3.8253,-12.35257 v -0.002 c -1.6279,-4.68783 -2.5753,-8.19752 -3.1151,-11.37422 v -0.004 c -0.1901,-1.17625 -0.3302,-3.75976 -0.3522,-6.23009 -0.022,-2.47189 0.09,-4.98104 0.2466,-5.80745 v 0 -0.002 c 1.2161,-6.52095 3.1133,-11.25288 6.3397,-16.15832 z m 219.6974,21.00894 c 0,0.008 0,0.0254 0,0.0333 l -0.01,-0.0176 c -6e-4,-0.002 0,-0.0133 0,-0.0156 z m 14.4894,5.44938 v 1.25227 2.21694 c 0,5.81426 -0.5502,8.51331 -3.0016,14.74951 v 0.002 c -4.3849,11.18457 -5.5145,14.55501 -6.2399,17.65911 -0.9839,-6.085 -2.6492,-10.07688 -7.7779,-18.63745 v 0 c -3.6784,-6.15017 -4.0573,-6.84528 -4.7098,-8.64856 v -0.006 c -0.2026,-0.56823 -0.2921,-0.93813 -0.6712,-1.39902 -0.1902,-0.23136 -0.5105,-0.4605 -0.8101,-0.55766 -0.2994,-0.0972 -0.5292,-0.0959 -0.7062,-0.0959 -0.2329,0 -0.4461,0.0173 -0.6752,0.0665 -0.1145,0.0245 -0.2309,0.0533 -0.3893,0.12327 -0.1522,0.0672 -0.4108,0.15084 -0.6614,0.61636 -0.1814,0.33427 -0.164,0.45388 -0.1761,0.56156 -0.013,0.11933 -0.019,0.22259 -0.022,0.33851 -0.01,0.23182 5e-4,0.50414 0.012,0.82572 0.023,0.64317 0.072,1.47638 0.1408,2.39303 0.1374,1.83329 0.3459,3.98472 0.5498,5.50416 v 0.002 0.004 c 1.1165,7.99414 2.4712,13.86495 4.9446,21.38463 v -0.002 c 2.5064,7.69663 3.4629,11.48237 3.9858,15.76307 v 0.002 0.002 c 0.092,0.73701 0.1334,2.15721 0.1096,3.4379 -0.012,0.64034 -0.039,1.2533 -0.076,1.74341 -0.037,0.4901 -0.1131,0.90848 -0.1135,0.90986 l 0.01,-0.0254 c -0.1003,0.32035 -0.1487,0.9976 0.2074,1.48121 0.3548,0.48193 0.7202,0.5802 1.0272,0.6868 0,3.7e-4 0,0.002 0,0.002 l 1.4754,0.56157 2.7883,-4.19709 v -0.004 c 1.2221,-1.8231 3.2866,-4.67751 4.5278,-6.22423 v -0.002 -0.002 c 3.9608,-4.961 6.3821,-8.8093 8.31,-13.31329 2.727,-6.32259 3.9609,-12.06235 4.1424,-19.1775 0.1606,-6.06604 -0.3537,-10.72806 -1.8002,-16.534 v -0.002 l -0.8707,-3.46138 h -1.6299 z m -244.9368,3.10526 c -0.2185,-0.003 -0.4323,0.0156 -0.683,0.0939 -0.2512,0.0786 -0.628,0.19226 -0.902,0.73964 l -0.043,0.0842 -0.029,0.092 c -0.1529,0.47418 -0.3429,1.29998 -0.5733,2.31673 -0.2303,1.01673 -0.4699,2.13332 -0.6144,2.90763 v 0.004 0.002 c -0.9617,5.25879 -1.2485,12.71208 -0.6242,17.43604 v 0 c 1.3931,10.6401 5.2445,19.34279 12.2822,27.7517 2.5661,3.07164 6.5795,8.48777 7.5254,10.10434 l -0.037,-0.0665 c 3e-4,6.2e-4 0.087,0.15284 0.1389,0.21719 0.051,0.0643 0.1066,0.11957 0.1604,0.16632 0.1078,0.0935 0.2114,0.15294 0.2995,0.19371 0.1761,0.0815 0.2945,0.0985 0.3854,0.10958 0.1817,0.0222 0.2678,0.009 0.3424,0 0.1494,-0.0174 0.2356,-0.0423 0.3307,-0.0685 0.1864,-0.0514 0.3739,-0.11823 0.5773,-0.20153 0.3037,-0.12151 0.5877,-0.26049 0.8706,-0.55767 0.283,-0.29717 0.5608,-0.95444 0.3679,-1.53404 l -0.027,-0.0842 -0.039,-0.0802 c 0.1435,0.28714 0.057,0.15148 0.037,0.0548 -0.019,-0.0967 -0.046,-0.25176 -0.074,-0.43438 -0.056,-0.36474 -0.1179,-0.84794 -0.1761,-1.3423 v -0.002 c -0.4544,-3.9299 0.5816,-9.94022 3.8332,-20.68023 v -0.002 -0.002 c 1.6511,-5.52958 2.389,-8.6571 3.2853,-14.11358 v -0.002 c 0.8562,-5.17798 1.2214,-8.60363 1.3619,-12.45628 l 0.1545,-4.29689 -1.4362,-0.36198 c -0.1834,-0.0496 -0.3421,-0.10417 -0.6124,-0.13502 -0.2703,-0.0308 -0.7851,0.0157 -1.1564,0.30133 -0.7426,0.57129 -0.638,0.98002 -0.7866,1.47535 v 0.004 0.004 c -0.4238,1.44829 -1.2564,3.08892 -4.1619,8.20829 -3.3322,5.81158 -4.7219,8.49933 -5.7096,11.17465 -1.0132,2.7311 -1.7136,5.67102 -2.123,8.61725 -0.7789,-2.98926 -1.7132,-5.78233 -3.8077,-10.74809 v -0.002 c -2.3463,-5.55387 -3.5782,-8.4858 -4.2715,-10.28631 -0.6934,-1.80051 -0.8385,-2.41091 -1.0821,-3.58074 v -0.002 c -0.5114,-2.42377 -0.8825,-5.89575 -0.8825,-8.13982 v -2.62392 l -1.7062,-0.2211 0.057,0.01 c -0.1492,-0.0263 -0.296,-0.0412 -0.4422,-0.0431 z m 247.2418,2.72958 c 1.0645,4.77409 1.5375,8.86609 1.399,14.09598 v 0.002 c -0.175,6.86512 -1.3173,12.17655 -3.9369,18.25003 v 0.002 c -1.8342,4.28639 -4.0859,7.88262 -7.9656,12.74196 -1.3323,1.6605 -3.3843,4.50152 -4.657,6.40032 v 0.002 l -0.7749,1.1662 c 0.013,-0.3012 0.033,-0.57006 0.039,-0.89031 0.025,-1.35693 0,-2.78664 -0.1272,-3.79205 v -0.004 c -0.5464,-4.47033 -1.5687,-8.48583 -4.0914,-16.23268 v -0.002 -0.002 c -2.4371,-7.40909 -3.7416,-13.0586 -4.8428,-20.94243 v -0.006 c -0.192,-1.43103 -0.3983,-3.56308 -0.5323,-5.35153 -0.01,-0.077 -0.01,-0.12186 -0.012,-0.19763 0.6103,1.46501 1.0095,2.39832 4.0327,7.45303 v 0.002 c 5.3028,8.85111 6.665,12.15302 7.5979,18.46917 v 0.002 0.002 c 0.1481,0.97627 0.2689,2.9321 0.3052,4.70778 0.018,0.88785 0.018,1.74061 0,2.42044 -0.022,0.67982 -0.099,1.26433 -0.1001,1.26792 v 0.002 0.004 c -0.056,0.22466 -0.091,0.40621 -0.098,0.64766 0,0.12073 -0.065,0.20683 0.1076,0.61441 0.086,0.20379 0.3712,0.67002 0.9763,0.7631 0.5751,0.0885 0.8882,-0.19577 1.0429,-0.34633 0.3714,-0.33537 0.3775,-0.49854 0.4286,-0.63788 0.057,-0.15597 0.1014,-0.30808 0.1487,-0.48917 0.094,-0.36218 0.1968,-0.82702 0.3131,-1.41272 0.2327,-1.17144 0.5193,-2.81262 0.857,-4.84868 v -0.002 -0.002 c 0.7874,-4.84222 1.0604,-5.6087 6.9209,-20.55697 2.115,-5.38044 2.7753,-8.81255 2.9742,-13.2996 z m -247.371,2.75698 c 0.1471,2.05358 0.2655,4.19968 0.6555,6.04812 0.251,1.20476 0.4732,2.09035 1.1955,3.96621 0.723,1.87753 1.956,4.80558 4.3027,10.36066 2.9831,7.07214 3.6153,8.96353 4.6766,14.36794 v 0.002 0.004 c 0.4768,2.37481 0.8574,4.14554 1.1016,5.13435 0.061,0.2472 0.1122,0.44421 0.1624,0.61048 0.025,0.0831 0.048,0.15616 0.084,0.2485 0.018,0.0462 0.038,0.0957 0.08,0.17414 0.042,0.0784 0.051,0.18693 0.3482,0.41873 0.074,0.058 0.316,0.17962 0.317,0.18002 10e-4,4e-4 0.547,0.0843 0.5479,0.0842 9e-4,-6e-5 0.5802,-0.18927 0.5811,-0.1898 4e-4,-2.6e-4 0.1992,-0.15615 0.1996,-0.15654 4e-4,-3.8e-4 0.099,-0.10336 0.1351,-0.15066 0.2866,-0.37837 0.2346,-0.50565 0.2484,-0.60462 0.028,-0.19793 0.016,-0.2621 0.012,-0.35024 -0.01,-0.17628 -0.029,-0.35977 -0.061,-0.61244 -0.6628,-5.30124 0.1443,-11.72609 2.1504,-17.13277 0.9127,-2.47215 2.2168,-5.01519 5.5354,-10.80286 v -0.002 -0.002 c 1.6621,-2.92852 2.6024,-4.68118 3.2716,-6.05986 -0.1475,3.57476 -0.4659,6.75216 -1.2797,11.67359 -0.8859,5.39371 -1.5768,8.32481 -3.2129,13.80443 -3.2816,10.83988 -4.4603,17.06786 -3.9252,21.69184 v 0.002 c 0,0.0288 0.01,0.0515 0.01,0.0802 -1.6987,-2.49804 -4.1295,-5.87509 -6.283,-8.4529 v -0.002 c -6.7843,-8.106 -10.3791,-16.2388 -11.7187,-26.47007 -0.5638,-4.26618 -0.295,-11.73977 0.6046,-16.65923 0.057,-0.30422 0.1667,-0.7938 0.2525,-1.20336 z m 223.0453,27.85149 -1.3657,0.12326 v 0 c -0.3107,0.0286 -0.7252,0.22272 -0.9509,0.45396 -0.2262,0.23162 -0.32,0.43747 -0.4011,0.62418 -0.1624,0.3734 -0.2666,0.75198 -0.4521,1.3599 -2.0098,6.57792 -3.1596,15.08889 -3.8155,28.12543 -0.4344,8.39033 -0.9135,12.84722 -1.6671,15.88047 -0.1709,0.66532 -0.9744,2.98472 -1.7277,4.83889 v 0.006 0.006 c -0.6539,1.65457 -0.9957,2.50096 -1.1761,3.15417 -0.09,0.32662 -0.1643,0.64287 -0.1001,1.05662 0.063,0.40602 0.3166,0.7576 0.4461,0.90595 0.1896,0.22522 0.3876,0.39279 0.6027,0.52439 0.224,0.13708 0.3922,0.28959 0.9353,0.28959 0.52,0 0.4847,-0.0898 0.5654,-0.12523 0.081,-0.0355 0.1406,-0.067 0.2055,-0.10175 0.1299,-0.0695 0.2726,-0.15307 0.4442,-0.25632 0.3431,-0.20651 0.7941,-0.48997 1.3344,-0.83746 1.0807,-0.695 2.5094,-1.63959 4.023,-2.65523 3.0271,-2.03127 6.3713,-4.33145 7.9618,-5.52177 v -0.002 0 c 10.0474,-7.55066 16.1789,-14.22332 20.0873,-21.93839 3.1296,-6.17678 4.6746,-13.97229 4.0093,-20.41804 v -0.008 -0.008 c -0.069,-0.59317 0.032,-0.89901 -0.3718,-1.55947 -0.2019,-0.33022 -0.6743,-0.63067 -0.9842,-0.70245 -0.3098,-0.0717 -0.4793,-0.0548 -0.6398,-0.0548 -0.1727,0 -0.366,-0.003 -0.6398,0.0626 -0.2739,0.0656 -0.6226,0.24997 -0.8453,0.48135 -0.4454,0.46279 -0.51,0.82682 -0.6849,1.32076 v 0.004 0.004 c -0.5933,1.70761 -2.3624,5.45755 -3.4222,7.26126 -1.8835,3.18371 -3.3869,5.13227 -6.416,8.25917 v 0.002 c -3.8822,4.02526 -6.6396,7.62733 -11.2295,14.37969 0.3985,-2.23843 0.6513,-4.64984 0.6516,-7.34736 v -0.004 c 0.02,-4.89591 -0.1592,-6.36288 -1.8628,-15.67305 v -0.002 c -0.3848,-2.09166 -0.7462,-4.15586 -1.0194,-5.79376 -0.2733,-1.6379 -0.4631,-2.92255 -0.4892,-3.1894 v 0 c -0.07,-0.7122 -0.062,-1.09548 -0.2934,-1.64948 -0.1158,-0.277 -0.3729,-0.60902 -0.6497,-0.78854 -0.022,-0.0143 -0.029,-0.009 -0.051,-0.0215 z m -196.7298,2.61413 c -0.4619,-0.0288 -0.7069,0.0713 -0.9411,0.13109 l -0.01,0.002 h -0.01 c -0.2146,0.0572 -0.5318,0.19995 -0.7691,0.45199 -0.2371,0.25203 -0.3521,0.54404 -0.4108,0.77485 -0.1175,0.46162 -0.1076,0.82142 -0.1076,1.38924 0,0.0618 -0.1234,1.3801 -0.3346,2.95461 -0.2113,1.57449 -0.5023,3.57394 -0.8179,5.60591 -1.5254,9.62759 -1.6771,11.34293 -1.5575,16.49879 0.071,3.15732 0.3173,5.09644 0.7318,7.06168 -4.3231,-5.97616 -7.31,-9.7543 -10.9439,-13.45223 v -0.002 -0.002 c -3.8502,-3.88961 -4.5238,-4.69792 -6.3475,-7.4041 v -0.002 c -1.2663,-1.87177 -3.5888,-6.26147 -4.3479,-8.17698 v -0.006 -0.008 c -0.2361,-0.57491 -0.3793,-0.95113 -0.6868,-1.35794 -0.3075,-0.40681 -1.0536,-0.7455 -1.4812,-0.7455 -0.3463,0 -0.8345,0.0921 -1.2229,0.40503 -0.3885,0.31295 -0.5813,0.73297 -0.6868,1.10554 -0.211,0.74513 -0.2153,1.53755 -0.2153,2.81176 0,6.18744 1.2641,11.59114 3.9878,17.20123 v 0.002 c 5.031,10.32644 13.9547,18.56572 31.5594,29.40706 0.8707,0.54033 1.7032,1.04048 2.352,1.41664 0.3249,0.18837 0.6039,0.34623 0.8238,0.46569 0.1099,0.0597 0.2042,0.10911 0.2916,0.15263 0.087,0.0435 0.1077,0.0709 0.3346,0.13892 l 0.057,0.0176 0.059,0.0117 c 0.4292,0.0858 0.707,0.0165 0.9881,-0.0724 0.2812,-0.0889 0.5516,-0.21681 0.8258,-0.46373 l 0.012,-0.01 0.01,-0.01 c 0.124,-0.11713 0.4416,-0.45018 0.5421,-0.90595 0.1004,-0.45577 0.011,-0.79951 -0.086,-1.12706 -0.1946,-0.65471 -0.5612,-1.47397 -1.2739,-3.117 v -0.002 c -0.7966,-1.84628 -1.652,-4.12341 -1.7805,-4.61189 v -0.008 -0.008 c -0.8649,-3.12124 -1.5229,-8.06199 -2.1348,-16.48901 v -0.002 -0.002 c -0.9139,-12.11939 -2.0747,-19.6914 -4.1071,-26.654 v -0.002 -0.004 c -0.2901,-0.97437 -0.4625,-1.58383 -0.6967,-2.10734 -0.117,-0.26177 -0.2497,-0.52695 -0.5243,-0.78855 -0.2746,-0.26161 -0.7289,-0.44453 -1.0704,-0.4657 z m 195.55,2.62978 c 0.076,0.48088 0.09,0.65187 0.1956,1.28359 0.2759,1.65351 0.6379,3.72848 1.0254,5.83484 1.7013,9.29819 1.8415,10.37078 1.8216,15.21325 v 0.004 0.002 c 0,6.49692 -1.2536,11.44722 -3.389,14.41883 -0.2025,0.28144 -0.372,0.54501 -0.5068,0.79441 -0.067,0.12507 -0.1266,0.23718 -0.1858,0.41091 -0.03,0.0869 -0.065,0.18379 -0.08,0.37373 -0.015,0.18227 -0.018,0.57657 0.3542,0.98422 0.2319,0.24064 0.6627,0.43439 0.9823,0.42264 0.3324,-0.0122 0.5168,-0.11666 0.6437,-0.19175 0.2539,-0.15021 0.3421,-0.26206 0.454,-0.38351 0.2239,-0.24292 0.4494,-0.54018 0.7827,-1.00183 0.6665,-0.92331 1.7211,-2.47333 3.4359,-5.03065 v -0.002 c 5.7091,-8.53395 8.1394,-11.67081 12.3937,-16.08201 v -0.002 c 3.1066,-3.20715 4.8134,-5.41871 6.7701,-8.72684 v -0.002 -0.002 c 0.9788,-1.66583 2.1247,-4.24064 2.9663,-6.30054 0.2472,5.5836 -1.1219,12.27713 -3.7764,17.51627 -3.6956,7.29489 -9.4844,13.6499 -19.3576,21.06961 -1.4795,1.1071 -4.8468,3.42743 -7.8541,5.44546 -1.5041,1.0093 -2.9243,1.94769 -3.982,2.62783 -0.092,0.0591 -0.1348,0.0838 -0.2211,0.13893 0.1822,-0.49233 0.2603,-0.74142 0.6477,-1.72188 l -0.01,0.0117 c 0.7901,-1.94494 1.5688,-4.12775 1.8353,-5.16957 v -0.004 -0.004 c 0.8305,-3.34271 1.3025,-7.91811 1.7395,-16.35792 v -0.002 c 0.5947,-11.82165 1.6789,-19.51141 3.3048,-25.56804 z m -195.5069,2.14258 c 1.8548,6.5688 2.9795,13.77938 3.8586,25.43694 0.6152,8.47234 1.2621,13.50624 2.217,16.9586 3e-4,10e-4 0,0.005 0,0.006 0.2684,1.01749 1.0741,3.05062 1.8999,4.96412 v 0.002 c 0.3919,0.90356 0.4513,1.08442 0.6457,1.55949 -0.5792,-0.33967 -1.2353,-0.72925 -1.9645,-1.18185 v -0.002 -0.002 c -17.4435,-10.74204 -25.8666,-18.61827 -30.6183,-28.37001 v -0.002 c -2.5823,-5.31973 -3.7353,-10.25418 -3.7353,-16.10549 0,-0.14361 0.012,-0.12025 0.014,-0.25046 1.049,2.36489 2.7624,5.71555 4.0543,7.62522 1.8582,2.75722 2.7714,3.85294 6.6429,7.76413 v -0.002 c 4.4537,4.53226 7.0884,7.83776 13.8104,17.40669 0.8883,1.28146 1.7763,2.45604 2.3851,3.19331 0.1527,0.18478 0.2865,0.34156 0.409,0.47548 0.1226,0.13391 0.1804,0.21998 0.4208,0.39134 0.06,0.0429 0.1308,0.0966 0.2973,0.16241 0.083,0.0329 0.1941,0.0717 0.3679,0.0861 0.087,0.007 0.1898,0.008 0.3091,-0.0117 0.1194,-0.0195 0.3844,-0.12858 0.3855,-0.12913 0,-5.5e-4 0.2573,-0.16883 0.3542,-0.27786 0.097,-0.10902 0.1669,-0.22521 0.2133,-0.33067 0.093,-0.21094 0.1053,-0.37233 0.1076,-0.48917 0,-0.2337 -0.034,-0.3329 -0.059,-0.41483 -0.097,-0.32769 -0.1656,-0.39597 -0.272,-0.57917 v -0.004 -0.002 c -0.2553,-0.43406 -0.5578,-0.85762 -0.8668,-1.19749 l 0.014,0.0137 c -0.026,-0.0296 -0.5956,-0.95006 -1.0429,-1.91365 -0.4465,-0.96164 -0.8918,-2.07577 -1.1311,-2.86263 v -0.002 c -3e-4,-0.001 0,-0.003 0,-0.004 -0.9087,-3.05606 -1.0952,-4.53369 -1.1935,-8.93227 v -0.002 c -0.1183,-5.10063 0,-6.43758 1.5282,-16.05267 v -0.002 -0.002 c 0.3179,-2.04727 0.6113,-4.05863 0.8257,-5.6568 0.082,-0.61452 0.08,-0.80776 0.1369,-1.26401 z m 186.7154,18.95639 -0.8883,0.88638 -1.4675,1.46947 v 0.002 c -1.9938,2.01505 -3.727,4.67852 -5.7174,8.719 -2e-4,3.4e-4 10e-5,0.002 0,0.002 -5e-4,9.2e-4 0,10e-4 0,0.002 -1.3907,2.80179 -2.1021,4.72966 -5.2908,14.25642 -2.0161,6.0086 -4.1483,12.04878 -4.5415,12.97674 -1.9779,4.57416 -4.9198,9.58999 -6.3769,11.16291 v 0.002 0.002 c -0.4521,0.49314 -0.7892,0.7781 -1.0136,1.43622 -0.1123,0.32906 -0.1209,0.78539 -0.012,1.11923 0.1027,0.31394 0.2485,0.506 0.3777,0.67505 0.1162,0.16531 0.3973,0.48265 0.7807,0.62223 0.3908,0.14231 0.7051,0.11364 0.9803,0.0763 0.5505,-0.0746 1.15,-0.24991 2.3011,-0.56745 l 0.01,-0.002 v -0.002 c 4.1502,-1.18012 7.5714,-2.00064 11.7833,-2.84698 10.9937,-2.19875 19.6399,-6.78168 27.0884,-14.43253 5.4332,-5.57509 9.2465,-11.9291 11.9886,-19.89364 v -0.002 l 0.7611,-2.24824 -1.2248,-0.83942 -0.01,-0.004 c -0.1406,-0.0938 -0.2821,-0.18205 -0.4324,-0.26415 -0.075,-0.0411 -0.1498,-0.0808 -0.2525,-0.12327 -0.1026,-0.0424 -0.1831,-0.11741 -0.5654,-0.11741 -6e-4,0 -0.21,0.0148 -0.2818,0.0313 -0.072,0.0164 -0.1256,0.0339 -0.1702,0.0509 -0.089,0.0341 -0.1421,0.0639 -0.184,0.0881 -0.084,0.0483 -0.1223,0.0794 -0.1564,0.10567 -0.068,0.0527 -0.1061,0.0873 -0.1449,0.12327 -0.077,0.0719 -0.1495,0.14451 -0.2367,0.2348 -0.1746,0.18061 -0.3987,0.42187 -0.6673,0.71811 -0.5372,0.59248 -1.2479,1.4003 -2.0153,2.28736 v 0.002 0.002 c -4.5782,5.34441 -6.9042,7.38627 -10.4723,9.29426 -4.3457,2.31311 -10.0797,5.73166 -15.18,8.96555 -2.3587,1.49554 -3.3898,2.36834 -5.2694,3.65118 3.0703,-4.93586 4.9061,-10.30312 5.649,-16.57314 1.0877,-9.19586 1.6102,-12.47836 2.5437,-16.13485 l 0.6515,-2.57109 -0.9783,-0.97834 z m -194.5794,0.40699 c 0.01,0.0121 0.021,0.0204 0.031,0.0333 0.017,0.0215 0.026,0.04 0.047,0.0724 -0.013,-0.0217 -0.065,-0.0834 -0.078,-0.10567 z m -0.9607,0.45981 c 0.022,0.0677 0,0.0711 0.061,0.19763 l -0.068,-0.1624 c 0,-0.0144 0.012,-0.0206 0.01,-0.0353 z m 18.1698,2.08975 c -0.6813,0 -0.7606,0.19777 -0.9489,0.32286 -0.1885,0.12509 -0.3518,0.25992 -0.5107,0.41873 l -0.037,0.0392 -0.035,0.0411 c -0.1929,0.22921 -0.5464,0.9649 -0.5067,1.5086 0.04,0.54371 0.1834,1.01867 0.4324,1.95475 0.9224,3.5567 2.2555,10.74981 2.5575,14.01379 v 0.008 0.008 c 0.092,0.87933 0.4073,2.75047 0.7082,4.35559 v 0.006 0.006 c 1.0289,5.19891 2.95,9.88333 5.5493,13.93357 -5.2181,-3.41786 -11.732,-7.30931 -19.1854,-11.22552 -6.134,-3.22425 -7.2841,-4.19439 -14.4111,-12.24886 v -0.002 c -0.2871,-0.32865 -0.4335,-0.62788 -1.0508,-0.87855 -0.3093,-0.12558 -0.7277,-0.13494 -0.9959,-0.0685 -0.2682,0.0664 -0.4221,0.15419 -0.5616,0.22699 l -0.01,0.004 -0.01,0.004 c -0.1395,0.0751 -0.2705,0.14957 -0.3776,0.21132 -0.053,0.0308 -0.099,0.0582 -0.1448,0.0861 -0.023,0.0139 -0.044,0.0267 -0.074,0.047 -0.01,0.004 -0.036,0.0317 -0.041,0.0333 -0.031,0.0249 -0.1986,0.16026 -0.2642,0.24263 -0.071,0.0897 -0.1194,0.1759 -0.1546,0.25046 -0.07,0.14911 -0.094,0.25788 -0.1076,0.34243 -0.028,0.16907 -0.019,0.25366 -0.014,0.3248 0.01,0.14229 0.029,0.21753 0.047,0.29742 0.036,0.15977 0.081,0.30983 0.1389,0.49113 0.1148,0.36259 0.2793,0.82521 0.4755,1.35207 0.3922,1.05372 0.9099,2.35283 1.3873,3.44964 v 0.004 0.004 c 4.7591,10.71302 12.4786,19.02733 22.5861,24.28443 5.1844,2.70315 9.7011,4.18888 15.6574,5.19502 3.9472,0.66767 7.5302,1.43053 11.4389,2.43215 0.7285,0.18964 1.4207,0.36386 1.9567,0.49309 0.2679,0.0646 0.4959,0.11727 0.677,0.15654 0.09,0.0196 0.1696,0.0353 0.2445,0.0489 0.075,0.0136 0.072,0.0352 0.3287,0.0352 0.7276,0 0.9272,-0.30574 1.131,-0.51069 0.2039,-0.20496 0.3551,-0.4235 0.4794,-0.69267 l 0.01,-0.0156 0.01,-0.0156 c 0.1196,-0.27914 0.2983,-0.87367 0.09,-1.42251 -0.2082,-0.54884 -0.4937,-0.75019 -0.7867,-1.02139 l 0.016,0.0156 c -0.6425,-0.61457 -2.6069,-3.23838 -3.8449,-5.31241 -2.369,-4.03902 -4.009,-7.83108 -7.2867,-16.95274 v -0.006 c -1.7434,-4.91282 -3.5405,-9.89253 -3.982,-11.09637 v -0.002 0 c -1.0428,-2.83626 -3.0105,-6.649 -4.8233,-9.36863 v -0.002 c -0.6918,-1.04275 -1.7719,-2.36022 -2.7706,-3.47116 -0.4997,-0.55581 -0.9725,-1.05315 -1.3775,-1.4362 -0.2026,-0.19153 -0.3847,-0.35333 -0.5754,-0.497 -0.095,-0.0718 -0.1919,-0.13949 -0.3248,-0.21133 -0.1328,-0.0718 -0.276,-0.1898 -0.7064,-0.1898 z m 176.621,1.38143 c -0.9612,3.7737 -1.5099,7.22846 -2.5966,16.41661 -0.9658,8.15203 -3.709,14.44624 -8.9147,20.50021 l 0.012,-0.0117 c -0.3156,0.35748 -0.5203,0.59827 -0.6928,0.85703 -0.043,0.0647 -0.085,0.11561 -0.1544,0.27784 -0.035,0.0811 -0.098,0.16999 -0.1057,0.48527 0,0.0788 0,0.17603 0.027,0.29349 0.012,0.0587 0.056,0.18938 0.057,0.18981 10e-5,4.2e-4 0.1035,0.21095 0.1037,0.21132 4e-4,7.3e-4 0.3691,0.38305 0.3698,0.38351 7e-4,4.6e-4 0.4413,0.18569 0.4422,0.18588 0,2e-4 0.2456,0.0291 0.3366,0.0235 0.091,-0.006 0.1624,-0.0191 0.2211,-0.0333 0.1174,-0.0283 0.1885,-0.0581 0.2445,-0.0842 0.1122,-0.0521 0.1645,-0.091 0.2113,-0.12326 0.093,-0.0645 0.1473,-0.11172 0.2075,-0.16436 v -0.002 -0.002 c 1.5405,-1.36342 6.0211,-4.44962 11.0788,-7.65652 5.0577,-3.2069 10.7674,-6.60849 15.0157,-8.86966 v -0.002 c 3.8368,-2.05173 6.5433,-4.4453 11.1903,-9.86952 v -0.004 c 0.2225,-0.2572 0.3713,-0.41959 0.5812,-0.6594 -2.5718,6.77855 -5.9413,12.26061 -10.6875,17.1308 -7.1259,7.31952 -15.1948,11.6061 -25.7853,13.72421 -4.2627,0.8565 -7.7711,1.69798 -11.977,2.89393 -0.2695,0.0743 -0.2512,0.0621 -0.4656,0.11936 1.98,-2.36283 4.4806,-6.78009 6.4121,-11.24899 v -0.006 -0.004 c 0.5968,-1.40857 2.5867,-7.12652 4.61,-13.15676 v -0.002 c 3.1865,-9.52011 3.8204,-11.23949 5.1617,-13.9414 v -0.002 -0.002 c 1.8641,-3.78453 3.4182,-6.11688 5.0795,-7.84826 z m -175.7952,2.31672 c 0.1079,0.11663 0.1834,0.1845 0.2955,0.30915 0.9363,1.04153 1.9937,2.34539 2.5495,3.18353 v 0.002 0.002 c 1.672,2.50797 3.6219,6.29698 4.5591,8.84619 0.4301,1.17277 2.2353,6.17109 3.976,11.07681 v 0.002 0.002 c 3.2949,9.16995 5.0204,13.17981 7.4823,17.37733 v 0.004 0.004 c 1.0975,1.84039 2.3958,3.52099 3.5064,4.80171 -0.3438,-0.0865 -0.6412,-0.15831 -1.0253,-0.25828 v -0.002 0 c -3.971,-1.01772 -7.6362,-1.79659 -11.6482,-2.47523 -5.7666,-0.97406 -9.922,-2.34272 -14.9159,-4.9465 v 0 c -9.6121,-4.99906 -16.9014,-12.83828 -21.4493,-23.07129 v -0.002 c 0,-0.002 0,-0.004 0,-0.006 -0.291,-0.66915 -0.5723,-1.40492 -0.859,-2.13279 5.581,6.19081 7.9604,8.24487 13.5678,11.19225 9.3086,4.89101 17.9628,10.05485 23.0576,13.73009 v 0.002 0.004 c 1.0625,0.75338 2.0202,1.45544 2.4048,1.71405 9e-4,6.7e-4 0.01,0.003 0.01,0.004 0.062,0.0471 0.025,0.0989 0.4344,0.21915 0.052,0.0152 0.1165,0.0303 0.2036,0.0411 0.087,0.0108 0.3455,-0.004 0.3463,-0.004 8e-4,-1.2e-4 0.52,-0.20509 0.5205,-0.20546 5e-4,-3.6e-4 0.4262,-0.50225 0.4265,-0.50286 3e-4,-6.2e-4 0.1174,-0.47266 0.1175,-0.47351 0,-8.6e-4 -0.01,-0.22026 -0.02,-0.2935 -0.027,-0.1465 -0.062,-0.22065 -0.088,-0.27981 -0.1036,-0.23669 -0.1424,-0.25347 -0.1859,-0.31112 -0.043,-0.0576 -0.083,-0.10653 -0.1272,-0.15849 -0.1762,-0.20784 -0.4238,-0.47435 -0.7514,-0.81203 l -0.01,-0.004 v -0.006 c -4.4917,-4.5297 -7.6375,-10.76862 -9.083,-18.06218 v -0.0117 c -0.2913,-1.55523 -0.6097,-3.49713 -0.677,-4.12861 v -0.0156 c -0.3323,-3.57749 -1.6396,-10.5773 -2.6161,-14.35425 z m 159.3981,20.89154 c -0.7285,-0.0276 -1.1885,0.23215 -1.7748,0.54201 -2.474,1.29477 -5.4966,4.24905 -10.4742,9.86365 -6.4361,7.26539 -10.1698,11.02228 -12.9669,13.15874 -1.3155,0.99497 -5.8004,3.55608 -8.2808,4.69213 v 0.002 0 c -1.5103,0.69992 -4.123,1.58407 -4.9641,1.74928 -0.3487,0.0671 -0.7894,0.0872 -1.2562,0.59289 -0.4683,0.50733 -0.4481,1.05289 -0.4481,1.38924 v 1.43229 c -3.7829,-1.42021 -5.8376,-2.08031 -8.3551,-2.4713 v 0 c -1.919,-0.30017 -5.7037,-0.43974 -8.6114,-0.39133 -0.9692,0.016 -1.8273,0.0536 -2.5046,0.12523 -2.574,0.26986 -6.198,1.0093 -9.2434,1.88234 l -2.0388,0.57721 -1.0371,-0.27981 -0.014,-0.004 c -4.9621,-1.40518 -8.6727,-1.90618 -13.8749,-1.88624 v 0 c -7.3697,0.02 -9.4338,0.50673 -20.1833,5.02869 -8.8707,3.73244 -13.3964,5.62583 -16.3911,6.61751 -2.9933,0.99119 -4.4414,1.11124 -7.551,1.34816 -5.8133,0.42209 -11.4723,-0.53096 -14.8532,-2.38325 l -2.0702,-1.13487 -1.0997,1.04878 -1.2444,1.30512 1.309,1.35989 c 0.8732,0.94601 2.3925,2.12911 4.1443,3.37333 1.7517,1.24422 3.6906,2.49185 5.2654,3.35181 v 0.002 0.002 c 3.5881,1.92882 8.3119,3.47974 12.2997,4.04055 v 0 c 2.3838,0.33109 7.0217,0.35079 9.4509,0.0195 v 0 c 6.7397,-0.93319 13.8022,-4.42723 21.013,-10.28826 1.1535,-0.93458 2.8014,-2.28344 3.655,-2.96242 l 0.01,-0.004 0.01,-0.004 c 2.3474,-1.90728 5.7785,-3.50915 8.5077,-3.97599 h 0.01 v -0.002 c 0.5595,-0.0998 1.8614,-0.11261 3.0289,-0.1311 -4.9835,2.62396 -11.0784,6.7428 -16.1563,11.22747 v 0.002 c -1.2768,1.13259 -3.2395,3.04843 -4.8996,4.73323 -0.83,0.84239 -1.5802,1.62305 -2.1288,2.22083 -0.2744,0.29889 -0.4954,0.54893 -0.6673,0.75919 -0.086,0.10514 -0.158,0.19365 -0.2368,0.31307 -0.039,0.0597 -0.082,0.12253 -0.1388,0.25242 -0.056,0.12845 -0.3109,0.34341 0,1.04488 0.098,0.22317 0.1494,0.26426 0.1839,0.3072 0.038,0.0479 0.067,0.0803 0.098,0.11349 0.06,0.0663 0.123,0.13209 0.1995,0.20935 0.1532,0.15454 0.3546,0.35085 0.5988,0.58505 0.4884,0.46841 1.1452,1.08532 1.8608,1.75124 v 0.002 l 3.569,3.27354 2.4282,-2.81959 v -0.002 c 4.2972,-4.98071 11.0327,-11.67219 15.5362,-15.4187 v -0.002 -0.002 c 3.0307,-2.54499 6.5528,-5.01882 8.9304,-6.33967 v 0.002 l 0.5184,-0.2896 1.174,0.61244 c 2.0879,1.11843 5.6957,3.54976 8.4882,5.76049 4.5297,3.59678 11.1408,9.8121 15.2329,14.33273 v 0.002 0.002 c 0.6224,0.68273 1.1989,1.29513 1.6416,1.74537 0.2214,0.22511 0.4065,0.40728 0.5635,0.55178 0.078,0.0722 0.1462,0.13327 0.2369,0.20349 0.045,0.0352 0.091,0.0716 0.1917,0.12915 0.05,0.0287 0.1126,0.0659 0.2347,0.10761 0.061,0.0208 0.1377,0.0423 0.2505,0.0567 0.056,0.007 0.122,0.0121 0.1997,0.01 0.077,-0.002 0.2673,-0.0371 0.2679,-0.0372 l 0.2114,-0.0528 0.182,-0.12131 c 0.1557,-0.10431 0.1185,-0.0885 0.1408,-0.10762 0.022,-0.0191 0.042,-0.0373 0.066,-0.0587 0.048,-0.0428 0.108,-0.0971 0.1821,-0.16436 0.1479,-0.1346 0.3511,-0.31969 0.5947,-0.54591 0.4875,-0.45246 1.139,-1.06512 1.8374,-1.73363 v -0.002 l 3.3812,-3.24811 -2.0037,-2.26584 v -0.002 c -2.4984,-2.8133 -7.844,-7.4516 -12.198,-10.63657 -3.485,-2.55118 -7.6916,-5.04665 -11.1394,-6.76818 0.8588,6.5e-4 1.8148,-0.0361 2.3597,0.0333 v 0 0 c 4.1333,0.50726 7.1798,1.94762 11.1864,5.33786 2.9773,2.52197 7.9254,5.74338 11.6482,7.62521 v 0.002 0.002 c 4.8732,2.42652 8.6375,3.43309 13.8592,3.61596 9.8076,0.36728 18.4134,-2.9684 26.9574,-10.31957 v -0.002 c 0.488,-0.4169 0.9277,-0.81302 1.2601,-1.12706 0.1666,-0.1574 0.3042,-0.29121 0.4207,-0.41481 0.058,-0.0618 0.1102,-0.11826 0.1741,-0.19959 0.032,-0.0407 0.068,-0.0852 0.1194,-0.17218 0.052,-0.0869 0.184,-0.14743 0.184,-0.66137 0,-0.43433 -0.094,-0.50415 -0.1449,-0.6144 -0.051,-0.11024 -0.099,-0.19488 -0.1526,-0.27981 -0.1035,-0.1653 -0.2234,-0.32784 -0.3639,-0.49503 l -0.01,-0.0137 -1.0879,-1.32273 -1.5653,1.1114 c -2.9192,2.0755 -10.0952,3.51824 -16.7982,2.982 v -0.002 0 c -2.6765,-0.20816 -3.7442,-0.26532 -6.6763,-1.21314 -2.9321,-0.94783 -7.6772,-2.8043 -17.2619,-6.54707 v 0 c -0.9637,-0.37465 -1.2049,-0.43604 -1.9723,-0.72986 l 8.5625,1.70037 v 0 c 4.7999,0.9481 10.6775,2.17991 12.9612,2.72176 4.1637,0.99133 4.6101,1.04361 8.2964,1.1427 2.9187,0.0801 4.48,0.0168 6.4199,-0.2485 5.8903,-0.79489 11.6618,-2.78444 16.626,-5.70571 v 0 c 5.0454,-2.98602 10.0462,-7.74522 13.2605,-12.62845 v -0.002 l 1.311,-2.0017 -1.1251,-1.12508 -1.1955,-1.25033 -2.0428,1.62014 c -4.7449,3.71849 -11.0314,6.24167 -17.894,7.10669 v 0 h -0.01 c -1.1959,0.16063 -4.4493,0.38704 -6.9815,0.50482 -3.9356,0.15721 -8.0473,0.65085 -12.5248,1.33838 1.0341,-0.73733 2.0223,-1.49534 3.0133,-2.52804 3.205,-3.35162 6.0631,-8.35572 9.4547,-16.35596 v -0.002 c 0.5104,-1.1972 1.0153,-2.34125 1.4167,-3.21484 0.2009,-0.43711 0.3761,-0.80827 0.5088,-1.07618 0.1326,-0.26791 0.2962,-0.51562 0.1878,-0.36785 l -0.014,0.0195 c 0.2069,-0.27146 0.4267,-0.59734 0.5127,-1.05269 0.086,-0.45537 -0.021,-0.89394 -0.1389,-1.20336 v -0.01 -0.01 c -0.1033,-0.25823 -0.2545,-0.55178 -0.5499,-0.81202 -0.2949,-0.25984 -0.7359,-0.42003 -1.1017,-0.43439 z m -142.731,1.79624 c -0.4106,0.0605 -0.8849,0.36142 -1.1133,0.68485 -0.2285,0.32342 -0.2973,0.60483 -0.3543,0.86093 v 0.002 0.002 c -0.071,0.32689 -0.1145,0.71685 -0.012,1.13293 0.1027,0.41607 0.3446,0.76869 0.5792,1.01942 l -0.01,-0.01 c -0.2174,-0.2371 0,0.008 0.1233,0.24263 0.128,0.2345 0.3001,0.56735 0.497,0.96464 0.3935,0.79458 0.8897,1.84644 1.3775,2.94873 v 0.002 0.002 c 2.3896,5.3564 4.0754,8.56793 6.142,11.66774 2.2136,3.3205 4.3206,5.50049 6.8328,7.18299 -1.1169,-0.14753 -2.3259,-0.31851 -3.2246,-0.42655 v 0 c -2.2157,-0.26663 -5.7301,-0.48331 -9.4587,-0.5831 v 0 c -6.1354,-0.1776 -7.7535,-0.32138 -11.069,-0.98422 l -0.01,-0.002 c -4.5598,-0.93192 -9.7477,-3.13479 -13.1763,-5.60785 v -0.004 l -2.6279,-1.86668 -1.17,1.11531 c -4e-4,3.6e-4 0,0.002 0,0.002 -0.1308,0.12059 -0.3652,0.26613 -0.5714,0.7318 -0.2067,0.46705 -0.1116,1.07835 0.043,1.4225 0.3094,0.68833 0.7612,1.20032 1.671,2.40674 v 0.002 0 c 6.7656,8.91174 16.9928,14.62587 28.914,16.18963 v 0 l 0.01,0.002 c 2.3807,0.29198 7.7635,0.30564 9.8813,-0.047 v 0 c 0.997,-0.15813 3.6743,-0.81178 6.3945,-1.50663 l 0.01,-0.002 c 2.0289,-0.50713 7.0202,-1.66609 11.5386,-2.69436 2.2604,-0.5144 4.4051,-0.99722 6.009,-1.3501 0.802,-0.17644 1.469,-0.31993 1.943,-0.41874 0.237,-0.0494 0.4267,-0.0875 0.5537,-0.11153 0.063,-0.012 0.1122,-0.0217 0.1351,-0.0254 0.023,-0.004 0.091,0.006 -0.1116,0.006 0.3764,0 0.7239,-0.19452 0.9001,-0.36591 0.1763,-0.17138 0.246,-0.31521 0.2955,-0.42656 0.099,-0.22271 0.1127,-0.35699 0.1291,-0.48722 0.033,-0.25839 0.024,-0.48481 0,-0.73963 -0.015,-0.16026 -0.021,-0.37228 -0.1487,-0.6907 -0.1299,-0.32291 -0.44,-0.66534 -0.7181,-0.83551 -0.5553,-0.33967 -0.9826,-0.39593 -1.808,-0.60461 -2.324,-0.59542 -3.672,-1.14338 -7.6116,-3.11309 -2.3316,-1.16587 -4.0055,-2.17665 -5.373,-3.20701 v 0 -0.002 c -1.9877,-1.48625 -6.7887,-6.13577 -14.7965,-14.45992 -4.2239,-4.40317 -6.6796,-6.64479 -8.7407,-7.57824 -0.5953,-0.27158 -1.0292,-0.51952 -1.8,-0.42657 -0.025,0.003 -0.033,-0.0175 -0.059,-0.0137 z m 141.2888,1.62014 c -0.078,0.16644 -0.141,0.29205 -0.2289,0.4833 -0.4148,0.90275 -0.9269,2.06368 -1.4459,3.28136 v 0.002 0 c -3.3403,7.87935 -6.1056,12.61994 -8.9598,15.60458 -2.264,2.35888 -3.9296,3.43255 -7.5156,4.78214 l -0.01,0.002 -0.01,0.002 c -0.4965,0.19248 -0.9319,0.36904 -1.2601,0.51265 -0.1641,0.0718 -0.2959,0.13292 -0.4266,0.20154 -0.065,0.0343 -0.1221,0.0606 -0.2407,0.14676 -0.059,0.0431 -0.1355,0.0775 -0.2876,0.28176 -0.038,0.0511 -0.081,0.11549 -0.1253,0.2074 -0.044,0.0919 -0.1133,0.37284 -0.1134,0.37372 -2e-4,8.9e-4 0.052,0.56865 0.053,0.5694 2e-4,7.5e-4 0.3038,0.49186 0.3072,0.497 0,2e-5 0,0.002 0,0.002 0.012,0.01 0.1815,0.14843 0.1819,0.14871 4e-4,2.9e-4 0.1064,0.0644 0.1507,0.0861 0.089,0.0433 0.1558,0.0648 0.2094,0.0802 0.1072,0.0308 0.1676,0.0375 0.2172,0.0431 0.099,0.0111 0.1488,0.0104 0.1956,0.01 0.093,-10e-4 0.1614,-0.007 0.2388,-0.0137 0.1546,-0.0142 0.3338,-0.0383 0.5479,-0.0685 0.428,-0.0605 0.9859,-0.15212 1.5868,-0.26416 7.0296,-1.31928 12.3212,-1.96067 17.7198,-2.17583 h 0.01 v 0 c 2.5725,-0.11965 5.7262,-0.32888 7.1869,-0.5244 6.1689,-0.77758 11.8629,-2.87483 16.6143,-5.94051 -2.9334,3.70451 -6.6622,7.30034 -10.5172,9.58191 -4.6593,2.74142 -10.1344,4.62937 -15.6888,5.37893 v 0 c -1.8215,0.24926 -3.1506,0.30544 -6.013,0.22697 -3.6801,-0.0989 -3.6304,-0.0854 -7.7837,-1.0742 v 0 c -2.3902,-0.5672 -8.2316,-1.79052 -13.055,-2.7433 l -6.3416,-1.26009 c 1.2767,-0.39539 2.603,-0.7747 3.794,-1.32664 2.7081,-1.24094 6.9719,-3.62731 8.7444,-4.96803 v -0.002 -0.002 c 3.0638,-2.33926 6.8529,-6.18533 13.3251,-13.49135 4.3709,-4.93025 7.0993,-7.44199 8.9323,-8.65052 z m -139.5395,1.77276 c 1.4118,0.91005 3.5398,2.70825 7.0421,6.35924 v 0.002 c 8.0304,8.34761 12.6936,12.92922 15.1018,14.72995 1.523,1.14704 3.3375,2.23418 5.7566,3.44377 3.5548,1.77732 5.2802,2.46836 7.3611,3.05438 -0.129,0.0283 -0.1976,0.0423 -0.3346,0.0724 -1.614,0.35507 -3.7622,0.83869 -6.0266,1.35403 -4.529,1.03068 -9.5034,2.18703 -11.5953,2.71001 v 0 0 c -2.699,0.6895 -5.6728,1.38105 -6.1832,1.46164 l -0.01,0.002 v 0 c -1.2095,0.20159 -7.3469,0.25395 -9.1652,0.0312 -11.1409,-1.46334 -20.551,-6.72846 -26.8928,-14.85321 3.7221,2.43582 8.4832,4.47977 13.0022,5.4024 v 0 0 c 3.4119,0.68236 5.3245,0.85451 11.4976,1.03314 v 0.002 c 3.6751,0.0983 7.171,0.31743 9.2317,0.56548 1.7974,0.21608 4.3283,0.55097 6.504,0.85703 1.0879,0.15304 2.0876,0.29991 2.8607,0.41874 0.7732,0.11882 1.3948,0.23205 1.4382,0.24262 l 0.01,0.002 0.01,0.002 c 0.1459,0.0337 0.2647,0.0589 0.3913,0.0782 0.063,0.01 0.1253,0.0174 0.2211,0.0215 0.096,0.004 0.179,0.0713 0.585,-0.0998 0.1015,-0.0428 0.232,-0.11018 0.3737,-0.24264 0.071,-0.0662 0.2071,-0.24981 0.2075,-0.25045 4e-4,-6.3e-4 0.1485,-0.3378 0.1487,-0.33851 2e-4,-7e-4 0.045,-0.3573 0.045,-0.35807 0,-7.7e-4 -0.02,-0.21147 -0.043,-0.29741 -0.046,-0.17191 -0.1095,-0.28606 -0.1644,-0.36982 -0.2195,-0.33506 -0.3165,-0.33872 -0.3933,-0.38939 -0.1537,-0.10133 -0.2393,-0.13578 -0.3522,-0.18784 -0.452,-0.20826 -1.1857,-0.48592 -2.2776,-0.87659 -4.9771,-1.78024 -7.3778,-3.7329 -10.7853,-8.84423 -1.9728,-2.9591 -3.5742,-6.00062 -5.9366,-11.29595 v -0.002 c -0.502,-1.13439 -1.0074,-2.21039 -1.4206,-3.0446 -0.077,-0.15649 -0.133,-0.25676 -0.2035,-0.39525 z m 83.8854,27.87497 c 2.7797,-0.0463 6.6878,0.12568 8.1848,0.36002 v 0 c 3.1398,0.48755 4.0024,0.78471 11.024,3.51422 9.5837,3.74242 14.3134,5.59794 17.4008,6.596 3.0875,0.99805 4.5835,1.12091 7.2535,1.32858 v -0.002 c 5.0797,0.40637 10.2043,-0.12655 14.19,-1.44599 -7.3702,5.68896 -14.5758,8.28939 -22.8953,7.97741 v 0 0 c -4.9537,-0.17349 -8.1577,-1.02922 -12.8241,-3.35181 v -0.002 c 0,-7.5e-4 0,-10e-4 0,-0.002 -3.4841,-1.76215 -8.4288,-4.99043 -11.1532,-7.29844 v -0.002 c -4.2292,-3.57858 -7.9164,-5.34636 -12.4934,-5.90919 h -0.01 c -1.2484,-0.15831 -2.9725,-0.15435 -4.473,-0.0724 -0.7513,0.041 -1.4321,0.10067 -1.9801,0.18784 -0.2741,0.0436 -0.5063,0.0869 -0.7612,0.17219 -0.1274,0.0427 -0.2599,0.0869 -0.4559,0.21915 -0.196,0.13232 -0.6066,0.46833 -0.6065,1.11139 -10e-5,9.3e-4 0.031,0.29199 0.064,0.3933 0.033,0.1013 0.07,0.17545 0.1037,0.2348 0.068,0.11871 0.1238,0.1802 0.1683,0.22893 0.089,0.0975 0.1406,0.13741 0.1858,0.17219 0.09,0.0696 0.151,0.10425 0.2153,0.14284 0.1285,0.0771 0.2646,0.15006 0.4285,0.23284 0.3279,0.16558 0.7527,0.36103 1.2229,0.55962 3.1958,1.34562 8.8186,4.68749 12.877,7.65848 4.2004,3.07248 9.5882,7.7848 11.8028,10.27847 l 0.4109,0.46374 -1.6494,1.58296 c -0.6736,0.64457 -1.2984,1.23226 -1.7729,1.67296 -0.3972,-0.40762 -0.8886,-0.92513 -1.442,-1.53207 v -0.002 c -4.2245,-4.66671 -10.8348,-10.88283 -15.5322,-14.61254 v -0.002 0 c -2.9105,-2.30413 -6.512,-4.7453 -8.86,-6.00311 l -0.01,-0.004 -2.3851,-1.24446 -1.6984,0.94118 v 0.002 c -2.6126,1.45144 -6.1781,3.96657 -9.3257,6.6097 -4.6841,3.89729 -11.4111,10.58938 -15.8257,15.70633 l -0.7436,0.8629 -1.6534,-1.51644 -0.01,-0.008 c -0.7065,-0.65747 -1.3558,-1.26739 -1.8255,-1.71796 0.031,-0.0345 0.041,-0.0479 0.074,-0.0842 0.5139,-0.55998 1.252,-1.32794 2.0682,-2.15628 1.6317,-1.65598 3.5974,-3.56991 4.7763,-4.61582 v -0.002 c 5.6693,-5.00661 13.1481,-10.07111 17.9174,-12.20973 l 0.01,-0.002 v -0.002 c 0.3669,-0.16774 0.7047,-0.33269 0.9744,-0.47743 0.1348,-0.0723 0.2478,-0.13696 0.3659,-0.21328 0.059,-0.0382 0.1172,-0.0742 0.2094,-0.15263 0.046,-0.0392 0.102,-0.0842 0.1878,-0.19175 0.043,-0.0538 0.095,-0.12508 0.1526,-0.24263 0.028,-0.0588 0.057,-0.12837 0.082,-0.21915 0.021,-0.0775 0.034,-0.23206 0.039,-0.28568 0.013,-0.36505 -0.148,-0.70452 -0.2974,-0.88441 -0.1516,-0.18262 -0.2817,-0.26355 -0.3854,-0.32285 -0.2076,-0.11862 -0.3408,-0.15042 -0.4736,-0.18589 -0.2654,-0.0709 -0.5204,-0.10651 -0.8238,-0.14089 -0.6066,-0.0687 -1.3725,-0.10928 -2.2051,-0.12718 -1.664,-0.0358 -3.5058,0.005 -4.7235,0.2211 -3.285,0.56318 -6.9312,2.28448 -9.6504,4.49061 -5e-4,4.1e-4 0,0.002 0,0.002 0,0.002 -0.01,0.004 -0.01,0.006 -0.8909,0.70879 -2.5225,2.0462 -3.663,2.97024 v 0 c -6.9663,5.66261 -13.6437,8.90281 -19.7743,9.75214 -1.9271,0.26275 -6.8717,0.24324 -8.766,-0.0195 v 0 c -3.6131,-0.50838 -8.1901,-2.00831 -11.4526,-3.76076 v -0.002 c 0,-8.9e-4 0,-10e-4 -0.01,-0.002 -1.4343,-0.78373 -3.3235,-1.99882 -5.0053,-3.19331 -0.186,-0.1321 -0.2339,-0.20247 -0.4148,-0.33459 3.7084,1.20034 8.2726,1.6454 12.9592,1.30511 v 0 0 c 3.1249,-0.23808 4.9729,-0.41491 8.1516,-1.46751 3.1788,-1.05261 7.7032,-2.95307 16.5751,-6.686 10.7147,-4.50733 11.9405,-4.81331 19.2226,-4.83303 5.049,-0.0195 8.3861,0.43258 13.1979,1.79625 l 0.01,0.002 1.7278,0.46765 2.71,-0.76898 v 0 c 2.8952,-0.82996 6.4799,-1.55514 8.8169,-1.80015 0.5408,-0.0572 1.3566,-0.0962 2.2835,-0.11153 z m 62.3109,8.36289 -0.3385,0.23871 -0.039,-0.047 c 0.1098,-0.0723 0.2727,-0.11714 0.3777,-0.19175 z"
         id="path12792" />
      <path
         d="m 1609.1328,351.00131 h -41.1429 v -16.00004 h 10.2857 v -48.00012 h -10.2857 v -16.00004 h 41.1429 v 16.00004 h -10.2857 v 48.00012 h 10.2857 z"
         style="font-size:114.286px;-inkscape-font-specification:'Russo One';letter-spacing:0px;word-spacing:0px;stroke-width:2.85713"
         id="path20997" />
    </g>
  </g>
</svg>
