<?xml version="1.0" encoding="UTF-8" standalone="no"?>
<!-- Created with Inkscape (http://www.inkscape.org/) -->

<svg
   width="256"
   height="256"
   viewBox="0 0 256 256"
   version="1.1"
   id="svg5"
   inkscape:version="1.1.2 (0a00cf5339, 2022-02-04)"
   sodipodi:docname="granturismotracker.svg"
   xmlns:inkscape="http://www.inkscape.org/namespaces/inkscape"
   xmlns:sodipodi="http://sodipodi.sourceforge.net/DTD/sodipodi-0.dtd"
   xmlns="http://www.w3.org/2000/svg"
   xmlns:svg="http://www.w3.org/2000/svg">
  <sodipodi:namedview
     id="namedview7"
     pagecolor="#ffffff"
     bordercolor="#666666"
     borderopacity="1.0"
     inkscape:pageshadow="2"
     inkscape:pageopacity="0.0"
     inkscape:pagecheckerboard="0"
     inkscape:document-units="px"
     showgrid="false"
     inkscape:zoom="0.93859296"
     inkscape:cx="152.88843"
     inkscape:cy="-12.785095"
     inkscape:window-width="1902"
     inkscape:window-height="1037"
     inkscape:window-x="8"
     inkscape:window-y="8"
     inkscape:window-maximized="1"
     inkscape:current-layer="layer1"
     units="px"
     width="1024px"
     showguides="false" />
  <defs
     id="defs2" />
  <g
     inkscape:label="Layer 1"
     inkscape:groupmode="layer"
     id="layer1">
    <g
       id="g5792">
      <circle
         style="fill:#80c0ff;stroke-width:3.51632"
         id="path1239"
         cx="128"
         cy="128"
         r="128" />
      <circle
         style="fill:#002040;fill-opacity:1;stroke-width:3.07678"
         id="circle1086"
         cx="128"
         cy="128"
         r="112" />
      <path
         id="path5517"
         style="font-size:104.918px;line-height:1.25;font-family:'Russo One';-inkscape-font-specification:'Russo One';letter-spacing:0px;word-spacing:0px;fill:#80c0ff;stroke-width:3.27869"
         d="m 74.22803,65.424312 c -9.180325,0 -15.866758,2.099668 -20.063478,6.296388 -4.109287,4.109289 -6.16455,10.753756 -6.16455,19.934083 v 41.967777 c 0,8.5683 2.010858,14.86241 6.032715,18.88428 2.719428,2.71942 6.503512,4.49778 11.301269,5.37841 h 2.512208 28.796384 22.351082 10.31738 v -2.62451 -15.7373 -34.75343 H 88.6543 v 15.73731 h 17.05078 v 19.01612 H 74.953128 c -0.602579,-0.27097 -1.162153,-0.60325 -1.643066,-1.0498 -1.136613,-1.22405 -1.704103,-2.84015 -1.704103,-4.85108 V 91.654784 c 0,-5.2459 2.622753,-7.868653 7.868653,-7.868653 H 121.44239 V 65.424312 Z m 55.08301,0 V 83.78613 h 27.54151 v 55.73731 17.70507 0.65674 H 180.4585 V 139.52344 83.78613 H 208 V 65.424312 Z m 7.86865,74.099128 v 18.36181 h 11.8042 v -18.36181 z m 51.14746,0 v 18.36181 H 208 V 139.52344 Z M 68.000003,167.88525 v 4.4751 h 6.711425 v 17.89551 h 5.751954 v -17.89551 h 6.711426 v -4.4751 z m 69.506837,0 v 22.37061 h 5.59326 v -6.71142 h 2.39746 l 3.67432,6.71142 h 5.91308 l -4.79491,-8.78906 4.79491,-8.14941 h -5.91308 l -3.51563,5.91307 h -2.55615 v -11.34521 z m -38.986822,5.11231 c -2.00268,0 -3.922146,0.79958 -5.75439,2.39745 l -0.317382,-2.07762 h -4.953614 v 16.93847 h 5.59082 v -11.34522 c 1.427446,-0.63914 2.813046,-0.95946 4.155276,-0.95946 h 2.71728 v -4.95362 z m 13.740242,0 c -3.13186,0 -6.64559,0.21354 -10.54443,0.63965 v 3.99414 c 1.02264,-0.0639 2.36407,-0.15781 4.02587,-0.28565 1.68311,-0.12782 3.21721,-0.19286 4.60205,-0.19286 0.31958,-1e-5 0.5853,0.10676 0.79835,0.31981 0.21305,0.21306 0.3198,0.47878 0.31983,0.79835 v 1.27929 h -6.5503 c -1.44876,0 -2.61038,0.43509 -3.48389,1.3086 -0.87351,0.87351 -1.31104,2.03514 -1.31104,3.48389 v 1.43798 c 0,1.44875 0.43753,2.61038 1.31104,3.48389 0.87351,0.87351 2.03513,1.31104 3.48389,1.31104 h 1.11816 c 0.72438,0 1.60741,-0.14851 2.65137,-0.44679 1.06525,-0.31957 2.09923,-0.8117 3.10058,-1.47216 l 0.31982,1.59912 h 4.95362 v -12.46338 c 0,-1.44875 -0.43752,-2.61038 -1.31103,-3.48389 -0.87351,-0.8735 -2.03514,-1.31103 -3.48389,-1.31103 z m 48.89648,0 c -1.59788,0 -2.85584,0.45839 -3.77196,1.37452 -0.89483,0.89481 -1.34278,2.14233 -1.34278,3.74022 v 7.66846 c 0,1.44875 0.43753,2.61038 1.31104,3.48389 0.87351,0.87351 2.03514,1.31104 3.48389,1.31104 3.3449,0 7.07217,-0.21355 11.18407,-0.63965 v -3.99415 c -4.06928,0.31959 -7.15837,0.47852 -9.26757,0.47852 -0.31958,0 -0.58529,-0.10677 -0.79834,-0.31982 -0.21306,-0.21305 -0.31982,-0.47876 -0.31982,-0.79834 v -1.2793 h 11.02538 v -5.91065 c 0,-1.59789 -0.4584,-2.84541 -1.37451,-3.74022 -0.89481,-0.91613 -2.1399,-1.37452 -3.73779,-1.37452 z m 25.40528,0 c -2.00268,0 -3.9197,0.79958 -5.75195,2.39745 l -0.31983,-2.07762 h -4.95361 v 16.93847 h 5.59326 v -11.34522 c 1.42745,-0.63914 2.81305,-0.95946 4.15528,-0.95946 H 188 v -4.95362 z m -61.83838,0.31983 c -1.59789,0 -2.85339,0.45839 -3.76954,1.3745 -0.89481,0.89482 -1.34276,2.14236 -1.34276,3.74024 v 7.34863 c 0,1.44875 0.43752,2.61038 1.31102,3.48389 0.87353,0.87351 2.0327,1.31104 3.48145,1.31104 3.04664,0 6.56282,-0.21355 10.54688,-0.63965 v -4.15528 c -3.83493,0.31958 -6.71046,0.48095 -8.62793,0.48095 -0.31957,0 -0.58531,-0.10677 -0.79833,-0.31982 -0.21308,-0.21305 -0.31983,-0.47875 -0.31983,-0.79834 v -6.23291 c 0,-0.85219 0.42464,-1.27929 1.27685,-1.27929 h 8.46924 v -4.31396 z m 38.19091,3.67675 h 2.87599 c 0.8522,0 1.27685,0.42465 1.27685,1.27686 v 1.75781 h -5.43212 V 178.271 c 0,-0.85221 0.42708,-1.27686 1.27928,-1.27686 z m -56.08642,6.5503 h 4.6338 v 1.9165 c -1.42745,0.42611 -2.70628,0.63965 -3.83546,0.63965 h -0.79834 c -0.31958,0 -0.58529,-0.10678 -0.79834,-0.31983 -0.21305,-0.21306 -0.31982,-0.47876 -0.31982,-0.79833 v -0.31983 c 0,-0.31957 0.10677,-0.58529 0.31982,-0.79834 0.21305,-0.21305 0.47876,-0.31982 0.79834,-0.31982 z" />
    </g>
  </g>
</svg>
