<?xml version="1.0" encoding="UTF-8" standalone="no"?>
<!-- Created with Inkscape (http://www.inkscape.org/) -->

<svg
   width="256"
   height="256"
   viewBox="0 0 256 256"
   version="1.1"
   id="svg5"
   inkscape:version="1.1.2 (0a00cf5339, 2022-02-04)"
   sodipodi:docname="pointscurrent.svg"
   xmlns:inkscape="http://www.inkscape.org/namespaces/inkscape"
   xmlns:sodipodi="http://sodipodi.sourceforge.net/DTD/sodipodi-0.dtd"
   xmlns:xlink="http://www.w3.org/1999/xlink"
   xmlns="http://www.w3.org/2000/svg"
   xmlns:svg="http://www.w3.org/2000/svg">
  <sodipodi:namedview
     id="namedview7"
     pagecolor="#ffffff"
     bordercolor="#666666"
     borderopacity="1.0"
     inkscape:pageshadow="2"
     inkscape:pageopacity="0.0"
     inkscape:pagecheckerboard="0"
     inkscape:document-units="px"
     showgrid="false"
     inkscape:zoom="1.3273709"
     inkscape:cx="201.52618"
     inkscape:cy="150.2971"
     inkscape:window-width="1920"
     inkscape:window-height="1080"
     inkscape:window-x="0"
     inkscape:window-y="0"
     inkscape:window-maximized="1"
     inkscape:current-layer="layer1"
     units="px"
     width="1024px" />
  <defs
     id="defs2">
    <linearGradient
       inkscape:collect="always"
       id="linearGradient3820">
      <stop
         style="stop-color:#ffffff;stop-opacity:1"
         offset="0"
         id="stop3816" />
      <stop
         style="stop-color:#fffffc;stop-opacity:0"
         offset="1"
         id="stop3818" />
    </linearGradient>
    <linearGradient
       inkscape:collect="always"
       id="linearGradient3229">
      <stop
         style="stop-color:#0080ff;stop-opacity:1;"
         offset="0"
         id="stop3225" />
      <stop
         style="stop-color:#004080;stop-opacity:1"
         offset="1"
         id="stop3227" />
    </linearGradient>
    <linearGradient
       inkscape:collect="always"
       xlink:href="#linearGradient3820"
       id="linearGradient1935"
       gradientUnits="userSpaceOnUse"
       x1="0"
       y1="128"
       x2="16.000004"
       y2="128" />
    <linearGradient
       inkscape:collect="always"
       xlink:href="#linearGradient3820"
       id="linearGradient1937"
       gradientUnits="userSpaceOnUse"
       gradientTransform="rotate(90,128.00001,127.99805)"
       x1="0"
       y1="128"
       x2="16.000004"
       y2="128" />
    <linearGradient
       inkscape:collect="always"
       xlink:href="#linearGradient3820"
       id="linearGradient1939"
       gradientUnits="userSpaceOnUse"
       gradientTransform="rotate(180,128,127.99806)"
       x1="0"
       y1="128"
       x2="16.000004"
       y2="128" />
    <linearGradient
       inkscape:collect="always"
       xlink:href="#linearGradient3820"
       id="linearGradient1941"
       gradientUnits="userSpaceOnUse"
       gradientTransform="rotate(-90,127.99999,127.99805)"
       x1="0"
       y1="128"
       x2="16.000004"
       y2="128" />
    <linearGradient
       inkscape:collect="always"
       xlink:href="#linearGradient3229"
       id="linearGradient1943"
       gradientUnits="userSpaceOnUse"
       gradientTransform="matrix(0.99998478,0,0,0.99998478,303.24785,17.049742)"
       x1="0"
       y1="0"
       x2="256"
       y2="256" />
  </defs>
  <g
     inkscape:label="Layer 1"
     inkscape:groupmode="layer"
     id="layer1">
    <g
       id="g2928"
       transform="translate(-303.2459,-17.047799)">
      <rect
         style="fill:url(#linearGradient1943);fill-opacity:1;stroke-width:21.5927"
         id="rect1915"
         width="255.99611"
         height="255.99611"
         x="303.24777"
         y="17.049732" />
      <path
         id="path1917"
         style="fill:#80c0ff;fill-opacity:1;stroke-width:21.5927"
         d="M 303.24785,17.049742 V 273.04585 H 559.24397 V 17.049742 Z m 15.99976,15.9978 h 223.9966 V 257.04415 h -223.9966 z" />
      <g
         id="g1927"
         transform="matrix(0.99998478,0,0,0.99998478,303.24785,17.051702)">
        <path
           style="fill:url(#linearGradient1935);fill-opacity:1;stroke:none;stroke-width:1px;stroke-linecap:butt;stroke-linejoin:miter;stroke-opacity:1"
           d="m 4e-6,0 16,15.998047 V 239.99805 L 0,256 Z"
           id="path1919" />
        <path
           style="fill:url(#linearGradient1937);fill-opacity:1;stroke:none;stroke-width:1px;stroke-linecap:butt;stroke-linejoin:miter;stroke-opacity:1"
           d="m 255.99805,-0.001953 -15.99804,16 H 16.000004 L -0.001946,-0.001957 Z"
           id="path1921" />
        <path
           style="fill:url(#linearGradient1939);fill-opacity:1;stroke:none;stroke-width:1px;stroke-linecap:butt;stroke-linejoin:miter;stroke-opacity:1"
           d="M 256,255.99609 240,239.99805 V 15.998047 l 16.00001,-16.00195 z"
           id="path1923" />
        <path
           style="fill:url(#linearGradient1941);fill-opacity:1;stroke:none;stroke-width:1px;stroke-linecap:butt;stroke-linejoin:miter;stroke-opacity:1"
           d="m 0.001964,255.99805 15.99804,-16 H 240 l 16.00195,16.00001 z"
           id="path1925" />
      </g>
      <path
         id="path1929"
         style="fill:#80c0ff;fill-opacity:1;stroke:none;stroke-width:1.62424;stroke-miterlimit:4;stroke-dasharray:none;stroke-opacity:1"
         d="m 406.24609,49.048828 v 8.25586 c 2.26485,-0.158314 4.57779,-0.257813 6.97071,-0.257813 h 43.02929 v -7.998047 z m 6.97071,23.998047 c -2.50035,0 -4.78392,0.131656 -6.97071,0.320313 v 21.166015 c 0.0663,-0.06858 0.11982,-0.145203 0.1875,-0.212891 4.13914,-4.139133 9.95846,-5.722656 15.79883,-5.722656 h 34.01367 V 73.046875 Z m 9.01562,31.550785 c -3.1737,0 -4.11647,0.6692 -4.48437,1.03711 -0.3679,0.3679 -1.03711,1.31067 -1.03711,4.48437 v 72.11133 c 0,1.70029 0.27321,2.21645 0.64648,2.66406 0.48595,0.40629 0.89431,0.60352 2.16992,0.60352 h 10.19922 c 3.71937,-0.14862 7.57894,-0.29676 11.58985,-0.44532 l 12.17382,-0.45117 h 0.006 c 0.80031,-0.0286 1.85776,-0.0907 2.75,-0.13086 v -79.87304 z m -86.98437,8.45117 v 127.99805 h 49.99804 V 228.5332 c -4.72488,-2.00071 -8.89158,-4.69822 -12.38867,-8.19531 -8.91938,-8.91938 -12.71094,-22.13274 -12.71094,-38.10742 v -69.18164 z m 40.89843,0 v 69.18164 c 0,13.47129 3.12125,21.89273 8.02344,26.79492 0.32869,0.32869 0.71538,0.6272 1.07617,0.93945 v -96.91601 z m 101.09961,31.99805 v 38.15234 c 5.16556,-0.33824 10.0115,-0.6605 16.60743,-1.06641 l 8.49023,-0.52148 v 38.92969 7.31445 l -7.28516,0.65234 c -6.19825,0.5559 -11.99798,1.0068 -17.8125,1.46094 v 11.07813 h 49.99805 v -96 z m -71,51.42578 v 20.43359 c 1.50055,0.091 3.06966,0.14063 4.71875,0.14063 12.83982,0 28.19069,-0.63823 45.28125,-1.72461 v -14.83399 c -0.69421,0.0298 -1.53268,0.0804 -2.17968,0.10352 l -12.15821,0.45117 c -4.04903,0.14996 -7.94796,0.29932 -11.69531,0.44922 l -0.16016,0.006 h -10.52539 c -4.78468,0 -9.71987,-1.7432 -13.28125,-5.02539 z m 80.09766,2.17578 c -3.2134,0.20338 -6.02115,0.38695 -9.09766,0.58398 v 14.58594 c 3.05161,-0.24174 5.94887,-0.44385 9.09766,-0.71094 z m -30.09766,32.7832 c -16.92354,1.03357 -32.1663,1.61524 -45.28125,1.61524 -1.60865,0 -3.16766,-0.0663 -4.71875,-0.14454 v 8.14454 h 50 z" />
      <path
         d="m 494.34438,220.54072 q -50.2535,4.50704 -83.38024,4.50704 -22.0845,0 -32.45069,-10.3662 -10.36619,-10.36619 -10.36619,-32.45069 v -72.11264 q 0,-23.661958 10.59154,-34.253502 10.8169,-10.816896 34.47886,-10.816896 h 81.12672 v 31.54928 h -72.11264 q -13.52112,0 -13.52112,13.521118 v 72.11264 q 0,5.1831 2.92958,8.33803 3.15492,2.92957 7.88732,2.92957 4.73239,0 10.36619,0 5.6338,-0.22535 11.7183,-0.4507 6.08451,-0.22535 12.16901,-0.4507 6.30986,-0.22536 15.99999,-0.90141 9.91549,-0.67606 24.56337,-1.57747 z"
         style="font-size:225.352px;line-height:1.25;font-family:'Russo One';-inkscape-font-specification:'Russo One';letter-spacing:0px;word-spacing:0px;fill:#c0ffc0;fill-opacity:1;stroke-width:5.63381"
         id="path2131" />
    </g>
  </g>
</svg>
