<?xml version="1.0" encoding="UTF-8" standalone="no"?>
<!-- Created with Inkscape (http://www.inkscape.org/) -->

<svg
   width="256"
   height="256"
   viewBox="0 0 256 256"
   version="1.1"
   id="svg5"
   inkscape:version="1.1.2 (0a00cf5339, 2022-02-04)"
   sodipodi:docname="pointspast.svg"
   xmlns:inkscape="http://www.inkscape.org/namespaces/inkscape"
   xmlns:sodipodi="http://sodipodi.sourceforge.net/DTD/sodipodi-0.dtd"
   xmlns:xlink="http://www.w3.org/1999/xlink"
   xmlns="http://www.w3.org/2000/svg"
   xmlns:svg="http://www.w3.org/2000/svg">
  <sodipodi:namedview
     id="namedview7"
     pagecolor="#ffffff"
     bordercolor="#666666"
     borderopacity="1.0"
     inkscape:pageshadow="2"
     inkscape:pageopacity="0.0"
     inkscape:pagecheckerboard="0"
     inkscape:document-units="px"
     showgrid="false"
     inkscape:zoom="1.3273709"
     inkscape:cx="201.52618"
     inkscape:cy="150.2971"
     inkscape:window-width="1920"
     inkscape:window-height="1080"
     inkscape:window-x="0"
     inkscape:window-y="0"
     inkscape:window-maximized="1"
     inkscape:current-layer="layer1"
     units="px"
     width="1024px" />
  <defs
     id="defs2">
    <linearGradient
       inkscape:collect="always"
       id="linearGradient3820">
      <stop
         style="stop-color:#ffffff;stop-opacity:1"
         offset="0"
         id="stop3816" />
      <stop
         style="stop-color:#fffffc;stop-opacity:0"
         offset="1"
         id="stop3818" />
    </linearGradient>
    <linearGradient
       inkscape:collect="always"
       id="linearGradient3229">
      <stop
         style="stop-color:#0080ff;stop-opacity:1;"
         offset="0"
         id="stop3225" />
      <stop
         style="stop-color:#004080;stop-opacity:1"
         offset="1"
         id="stop3227" />
    </linearGradient>
    <linearGradient
       inkscape:collect="always"
       xlink:href="#linearGradient3229"
       id="linearGradient21557"
       gradientUnits="userSpaceOnUse"
       gradientTransform="matrix(0.99998478,0,0,0.99998478,0.00194597,0.00194294)"
       x1="0"
       y1="0"
       x2="256"
       y2="256" />
    <linearGradient
       inkscape:collect="always"
       xlink:href="#linearGradient3820"
       id="linearGradient21559"
       gradientUnits="userSpaceOnUse"
       x1="0"
       y1="128"
       x2="16.000004"
       y2="128" />
    <linearGradient
       inkscape:collect="always"
       xlink:href="#linearGradient3820"
       id="linearGradient21561"
       gradientUnits="userSpaceOnUse"
       gradientTransform="rotate(90,128.00001,127.99805)"
       x1="0"
       y1="128"
       x2="16.000004"
       y2="128" />
    <linearGradient
       inkscape:collect="always"
       xlink:href="#linearGradient3820"
       id="linearGradient21563"
       gradientUnits="userSpaceOnUse"
       gradientTransform="rotate(180,128,127.99806)"
       x1="0"
       y1="128"
       x2="16.000004"
       y2="128" />
    <linearGradient
       inkscape:collect="always"
       xlink:href="#linearGradient3820"
       id="linearGradient21565"
       gradientUnits="userSpaceOnUse"
       gradientTransform="rotate(-90,127.99999,127.99805)"
       x1="0"
       y1="128"
       x2="16.000004"
       y2="128" />
  </defs>
  <g
     inkscape:label="Layer 1"
     inkscape:groupmode="layer"
     id="layer1">
    <g
       id="g2917">
      <rect
         style="fill:url(#linearGradient21557);fill-opacity:1;stroke-width:21.5927"
         id="rect21539"
         width="255.99611"
         height="255.99611"
         x="0.0018686169"
         y="0.0019331261" />
      <path
         id="path21541"
         style="fill:#80c0ff;fill-opacity:1;stroke-width:21.5927"
         d="M 0.00194597,0.00194294 V 255.99805 H 255.99806 V 0.00194294 Z M 16.001706,15.999743 H 239.9983 V 239.99635 H 16.001706 Z" />
      <g
         id="g21551"
         transform="matrix(0.99998478,0,0,0.99998478,0.00194597,0.00390294)">
        <path
           style="fill:url(#linearGradient21559);fill-opacity:1;stroke:none;stroke-width:1px;stroke-linecap:butt;stroke-linejoin:miter;stroke-opacity:1"
           d="m 4e-6,0 16,15.998047 V 239.99805 L 0,256 Z"
           id="path21543" />
        <path
           style="fill:url(#linearGradient21561);fill-opacity:1;stroke:none;stroke-width:1px;stroke-linecap:butt;stroke-linejoin:miter;stroke-opacity:1"
           d="m 255.99805,-0.001953 -15.99804,16 H 16.000004 L -0.001946,-0.001957 Z"
           id="path21545" />
        <path
           style="fill:url(#linearGradient21563);fill-opacity:1;stroke:none;stroke-width:1px;stroke-linecap:butt;stroke-linejoin:miter;stroke-opacity:1"
           d="M 256,255.99609 240,239.99805 V 15.998047 l 16.00001,-16.00195 z"
           id="path21547" />
        <path
           style="fill:url(#linearGradient21565);fill-opacity:1;stroke:none;stroke-width:1px;stroke-linecap:butt;stroke-linejoin:miter;stroke-opacity:1"
           d="m 0.001964,255.99805 15.99804,-16 H 240 l 16.00195,16.00001 z"
           id="path21549" />
      </g>
      <path
         id="rect21759"
         style="fill:#80c0ff;fill-opacity:1;stroke:none;stroke-width:1.62424;stroke-miterlimit:4;stroke-dasharray:none;stroke-opacity:1"
         d="M 103 32.001953 L 103 40 L 153 40 L 153 32.001953 L 103 32.001953 z M 103 56 L 103 72 L 144 72 C 147.09196 72 150.16671 72.453764 153 73.470703 L 153 56 L 103 56 z M 106.28516 88 L 106.28516 122.28516 L 144 122.28516 C 147.23808 122.28516 148.22881 121.60126 148.62891 121.20117 C 149.029 120.80108 149.71484 119.81035 149.71484 116.57227 L 149.71484 93.714844 C 149.71484 90.47676 149.029 89.48603 148.62891 89.085938 C 148.22881 88.685846 147.23808 88 144 88 L 106.28516 88 z M 32.001953 96 L 32.001953 223.99805 L 82 223.99805 L 82 216 L 49.142578 216 L 49.142578 96 L 32.001953 96 z M 65.142578 96 L 65.142578 200 L 82 200 L 82 96 L 65.142578 96 z M 174 128 L 174 151.02148 C 177.46233 149.64972 180.19987 147.91536 182.22852 145.88672 C 185.96178 142.15345 188.7186 136.33362 190.01758 128 L 174 128 z M 206.17773 128 C 204.71272 140.02885 200.74479 149.99739 193.54297 157.19922 C 188.39203 162.35016 181.79316 165.81275 174 167.87695 L 174 223.99805 L 223.99805 223.99805 L 223.99805 128 L 206.17773 128 z M 153 136.81445 C 150.16671 137.83139 147.09196 138.28516 144 138.28516 L 103 138.28516 L 103 154.28516 L 153 154.28516 L 153 136.81445 z M 106.28516 170.28516 L 106.28516 216 L 103 216 L 103 223.99805 L 153 223.99805 L 153 170.28516 L 106.28516 170.28516 z " />
      <path
         d="m 57.142914,48.000133 h 95.999816 q 23.99996,0 34.7428,10.971408 10.9714,10.742837 10.9714,34.742792 v 22.857097 q 0,23.99996 -10.9714,34.97137 -10.74284,10.74283 -34.7428,10.74283 H 98.285694 v 45.7142 h -41.14278 z m 100.571236,45.7142 q 0,-13.71426 -13.71426,-13.71426 H 98.285694 v 50.285617 h 45.714196 q 13.71426,0 13.71426,-13.71426 z"
         style="font-size:228.571px;line-height:1.25;font-family:'Russo One';-inkscape-font-specification:'Russo One';letter-spacing:0px;word-spacing:0px;stroke-width:5.71429"
         id="path2109" />
      <path
         d="m 57.142914,48.000133 h 95.999816 q 23.99996,0 34.7428,10.971408 10.9714,10.742837 10.9714,34.742792 v 22.857097 q 0,23.99996 -10.9714,34.97137 -10.74284,10.74283 -34.7428,10.74283 H 98.285694 v 45.7142 h -41.14278 z m 100.571236,45.7142 q 0,-13.71426 -13.71426,-13.71426 H 98.285694 v 50.285617 h 45.714196 q 13.71426,0 13.71426,-13.71426 z"
         style="font-size:228.571px;line-height:1.25;font-family:'Russo One';-inkscape-font-specification:'Russo One';letter-spacing:0px;word-spacing:0px;stroke-width:5.71429;fill:#ffc0c0;fill-opacity:1"
         id="path2153" />
    </g>
  </g>
</svg>
