<?xml version="1.0" encoding="UTF-8" standalone="no"?>
<!-- Created with Inkscape (http://www.inkscape.org/) -->

<svg
   width="256"
   height="256"
   viewBox="0 0 256 256"
   version="1.1"
   id="svg5"
   inkscape:version="1.1.2 (0a00cf5339, 2022-02-04)"
   sodipodi:docname="time.svg"
   xmlns:inkscape="http://www.inkscape.org/namespaces/inkscape"
   xmlns:sodipodi="http://sodipodi.sourceforge.net/DTD/sodipodi-0.dtd"
   xmlns:xlink="http://www.w3.org/1999/xlink"
   xmlns="http://www.w3.org/2000/svg"
   xmlns:svg="http://www.w3.org/2000/svg">
  <sodipodi:namedview
     id="namedview7"
     pagecolor="#ffffff"
     bordercolor="#666666"
     borderopacity="1.0"
     inkscape:pageshadow="2"
     inkscape:pageopacity="0.0"
     inkscape:pagecheckerboard="0"
     inkscape:document-units="px"
     showgrid="false"
     inkscape:zoom="0.4692965"
     inkscape:cx="1108.0415"
     inkscape:cy="-40.486132"
     inkscape:window-width="1902"
     inkscape:window-height="1037"
     inkscape:window-x="8"
     inkscape:window-y="8"
     inkscape:window-maximized="1"
     inkscape:current-layer="layer1"
     units="px"
     width="1024px" />
  <defs
     id="defs2">
    <linearGradient
       inkscape:collect="always"
       id="linearGradient3820">
      <stop
         style="stop-color:#ffffff;stop-opacity:1"
         offset="0"
         id="stop3816" />
      <stop
         style="stop-color:#fffffc;stop-opacity:0"
         offset="1"
         id="stop3818" />
    </linearGradient>
    <linearGradient
       inkscape:collect="always"
       id="linearGradient3229">
      <stop
         style="stop-color:#0080ff;stop-opacity:1;"
         offset="0"
         id="stop3225" />
      <stop
         style="stop-color:#004080;stop-opacity:1"
         offset="1"
         id="stop3227" />
    </linearGradient>
    <linearGradient
       inkscape:collect="always"
       xlink:href="#linearGradient3229"
       id="linearGradient4692"
       gradientUnits="userSpaceOnUse"
       gradientTransform="translate(1297.8073,-19.605615)"
       x1="0"
       y1="0"
       x2="256"
       y2="256" />
    <linearGradient
       inkscape:collect="always"
       xlink:href="#linearGradient3820"
       id="linearGradient4694"
       gradientUnits="userSpaceOnUse"
       x1="0"
       y1="128"
       x2="16.000004"
       y2="128" />
    <linearGradient
       inkscape:collect="always"
       xlink:href="#linearGradient3820"
       id="linearGradient4696"
       gradientUnits="userSpaceOnUse"
       gradientTransform="rotate(90,128.00001,127.99805)"
       x1="0"
       y1="128"
       x2="16.000004"
       y2="128" />
    <linearGradient
       inkscape:collect="always"
       xlink:href="#linearGradient3820"
       id="linearGradient4698"
       gradientUnits="userSpaceOnUse"
       gradientTransform="rotate(180,128,127.99806)"
       x1="0"
       y1="128"
       x2="16.000004"
       y2="128" />
    <linearGradient
       inkscape:collect="always"
       xlink:href="#linearGradient3820"
       id="linearGradient4700"
       gradientUnits="userSpaceOnUse"
       gradientTransform="rotate(-90,127.99999,127.99805)"
       x1="0"
       y1="128"
       x2="16.000004"
       y2="128" />
  </defs>
  <g
     inkscape:label="Layer 1"
     inkscape:groupmode="layer"
     id="layer1">
    <g
       id="g5197"
       transform="matrix(0.99998478,0,0,0.99998478,-1297.7856,19.607266)">
      <rect
         style="fill:url(#linearGradient4692);fill-opacity:1;stroke-width:21.593"
         id="rect4674"
         width="256"
         height="256"
         x="1297.8073"
         y="-19.605616" />
      <path
         id="path4676"
         style="fill:#80c0ff;fill-opacity:1;stroke-width:21.593"
         d="M 1297.8073,-19.605617 V 236.39439 h 256 V -19.605617 Z m 16,15.998047 h 224 v 224.00001 h -224 z" />
      <g
         id="g4686"
         transform="translate(1297.8073,-19.603661)">
        <path
           style="fill:url(#linearGradient4694);fill-opacity:1;stroke:none;stroke-width:1px;stroke-linecap:butt;stroke-linejoin:miter;stroke-opacity:1"
           d="m 4e-6,0 16,15.998047 V 239.99805 L 0,256 Z"
           id="path4678" />
        <path
           style="fill:url(#linearGradient4696);fill-opacity:1;stroke:none;stroke-width:1px;stroke-linecap:butt;stroke-linejoin:miter;stroke-opacity:1"
           d="m 255.99805,-0.001953 -15.99804,16 H 16.000004 L -0.001946,-0.001957 Z"
           id="path4680" />
        <path
           style="fill:url(#linearGradient4698);fill-opacity:1;stroke:none;stroke-width:1px;stroke-linecap:butt;stroke-linejoin:miter;stroke-opacity:1"
           d="M 256,255.99609 240,239.99805 V 15.998047 l 16.00001,-16.00195 z"
           id="path4682" />
        <path
           style="fill:url(#linearGradient4700);fill-opacity:1;stroke:none;stroke-width:1px;stroke-linecap:butt;stroke-linejoin:miter;stroke-opacity:1"
           d="m 0.001964,255.99805 15.99804,-16 H 240 l 16.00195,16.00001 z"
           id="path4684" />
      </g>
      <path
         id="path4732"
         style="fill:#80c0ff;fill-opacity:1;stroke:none;stroke-width:20.1761;stroke-miterlimit:4;stroke-dasharray:none"
         d="m 1425.8073,12.394384 a 96,96 0 0 0 -96,95.999996 96,96 0 0 0 96,96 96,96 0 0 0 96,-96 96,96 0 0 0 -96,-95.999996 z m 0,16 a 80,80 0 0 1 80,79.999996 80,80 0 0 1 -80,80 80,80 0 0 1 -80,-80 80,80 0 0 1 80,-79.999996 z m 0,16 a 64,64 0 0 0 -64,63.999996 64,64 0 0 0 64,64 64,64 0 0 0 64,-64 h -64 z" />
    </g>
  </g>
</svg>
